M48
; DRILL file {KiCad 8.0.3} date 2024-09-06T14:15:41-0500
; FORMAT={-:-/ absolute / metric / decimal}
; #@! TF.CreationDate,2024-09-06T14:15:41-05:00
; #@! TF.GenerationSoftware,Kicad,Pcbnew,8.0.3
; #@! TF.FileFunction,Plated,1,2,PTH
FMAT,2
METRIC
; #@! TA.AperFunction,Plated,PTH,ViaDrill
T1C0.400
; #@! TA.AperFunction,Plated,PTH,ComponentDrill
T2C0.762
; #@! TA.AperFunction,Plated,PTH,ComponentDrill
T3C1.000
; #@! TA.AperFunction,Plated,PTH,ComponentDrill
T4C1.450
; #@! TA.AperFunction,Plated,PTH,ComponentDrill
T5C1.524
%
G90
G05
T1
X166.624Y-123.031
X176.213Y-142.081
X178.308Y-161.036
X182.626Y-161.036
X221.35Y-181.102
X222.031Y-181.835
X222.692Y-182.585
X334.169Y-162.719
X342.9Y-176.213
X367.506Y-162.719
T2
X190.5Y-164.846
X190.5Y-180.086
X193.04Y-164.846
X193.04Y-180.086
X195.58Y-164.846
X195.58Y-180.086
X198.12Y-164.846
X198.12Y-180.086
X200.66Y-164.846
X200.66Y-180.086
X203.2Y-164.846
X203.2Y-180.086
X205.74Y-164.846
X205.74Y-180.086
X208.28Y-164.846
X208.28Y-180.086
X210.82Y-164.846
X210.82Y-167.386
X210.82Y-169.926
X210.82Y-172.466
X210.82Y-175.006
X210.82Y-177.546
X210.82Y-180.086
T4
X52.75Y-118.206
X57.512Y-137.256
X59.75Y-119.256
X62.275Y-156.306
X64.513Y-138.306
X67.037Y-175.356
X69.275Y-157.356
X71.8Y-118.206
X74.037Y-176.406
X78.8Y-119.256
X81.325Y-137.256
X88.325Y-138.306
X90.85Y-118.206
X90.85Y-156.306
X90.85Y-175.356
X97.85Y-119.256
X97.85Y-157.356
X97.85Y-176.406
X100.375Y-137.256
X107.375Y-138.306
X109.9Y-118.206
X109.9Y-156.306
X116.9Y-119.256
X116.9Y-157.356
X119.425Y-137.256
X126.425Y-138.306
X128.95Y-118.206
X128.95Y-156.306
X135.95Y-119.256
X135.95Y-157.356
X138.475Y-137.256
X145.475Y-138.306
X148.0Y-118.206
X148.0Y-156.306
X155.0Y-119.256
X155.0Y-157.356
X157.525Y-137.256
X164.525Y-138.306
X164.669Y-175.356
X167.05Y-118.206
X167.05Y-156.306
X171.669Y-176.406
X174.05Y-119.256
X174.05Y-157.356
X176.575Y-137.256
X183.575Y-138.306
X186.1Y-118.206
X186.1Y-156.306
X193.1Y-119.256
X193.1Y-157.356
X195.625Y-137.256
X202.625Y-138.306
X205.15Y-118.206
X205.15Y-156.306
X212.15Y-119.256
X212.15Y-157.356
X214.675Y-137.256
X221.675Y-138.306
X224.2Y-118.206
X224.2Y-156.306
X231.2Y-119.256
X231.2Y-157.356
X233.725Y-137.256
X236.106Y-175.356
X240.725Y-138.306
X243.106Y-176.406
X243.25Y-118.206
X243.25Y-156.306
X250.25Y-119.256
X250.25Y-157.356
X252.775Y-137.256
X257.537Y-175.356
X259.775Y-138.306
X262.3Y-118.206
X262.3Y-156.306
X264.537Y-176.406
X269.3Y-119.256
X269.3Y-157.356
X271.825Y-137.256
X278.825Y-138.306
X278.969Y-175.356
X285.969Y-176.406
X286.113Y-118.206
X286.113Y-156.306
X290.875Y-137.256
X293.113Y-119.256
X293.113Y-157.356
X297.875Y-138.306
X328.022Y-118.206
X328.022Y-137.256
X328.022Y-156.306
X328.022Y-175.356
X335.022Y-119.256
X335.022Y-138.306
X335.022Y-157.356
X335.022Y-176.406
X347.072Y-118.206
X347.072Y-137.256
X347.072Y-156.306
X347.072Y-175.356
X354.072Y-119.256
X354.072Y-138.306
X354.072Y-157.356
X354.072Y-176.406
X366.123Y-118.206
X366.123Y-137.256
X366.123Y-156.306
X366.123Y-175.356
X373.123Y-119.256
X373.123Y-138.306
X373.123Y-157.356
X373.123Y-176.406
T5
X53.34Y-110.966
X58.102Y-130.016
X59.69Y-108.426
X62.865Y-149.066
X64.453Y-127.476
X67.627Y-168.116
X69.215Y-146.526
X72.39Y-110.966
X73.977Y-165.576
X78.74Y-108.426
X81.915Y-130.016
X88.265Y-127.476
X91.44Y-110.966
X91.44Y-149.066
X91.44Y-168.116
X97.79Y-108.426
X97.79Y-146.526
X97.79Y-165.576
X100.965Y-130.016
X107.315Y-127.476
X110.49Y-110.966
X110.49Y-149.066
X116.84Y-108.426
X116.84Y-146.526
X120.015Y-130.016
X126.365Y-127.476
X129.54Y-110.966
X129.54Y-149.066
X135.89Y-108.426
X135.89Y-146.526
X139.065Y-130.016
X145.415Y-127.476
X148.59Y-110.966
X148.59Y-149.066
X154.94Y-108.426
X154.94Y-146.526
X158.115Y-130.016
X164.465Y-127.476
X165.259Y-168.116
X167.64Y-110.966
X167.64Y-149.066
X171.609Y-165.576
X173.99Y-108.426
X173.99Y-146.526
X177.165Y-130.016
X183.515Y-127.476
X186.69Y-110.966
X186.69Y-149.066
X193.04Y-108.426
X193.04Y-146.526
X196.215Y-130.016
X202.565Y-127.476
X205.74Y-110.966
X205.74Y-149.066
X212.09Y-108.426
X212.09Y-146.526
X215.265Y-130.016
X221.615Y-127.476
X224.79Y-110.966
X224.79Y-149.066
X231.14Y-108.426
X231.14Y-146.526
X234.315Y-130.016
X236.696Y-168.116
X240.665Y-127.476
X243.046Y-165.576
X243.84Y-110.966
X243.84Y-149.066
X250.19Y-108.426
X250.19Y-146.526
X253.365Y-130.016
X258.127Y-168.116
X259.715Y-127.476
X262.89Y-110.966
X262.89Y-149.066
X264.477Y-165.576
X269.24Y-108.426
X269.24Y-146.526
X272.415Y-130.016
X278.765Y-127.476
X279.559Y-168.116
X285.909Y-165.576
X286.702Y-110.966
X286.702Y-149.066
X291.465Y-130.016
X293.053Y-108.426
X293.053Y-146.526
X297.815Y-127.476
X328.613Y-110.966
X328.613Y-130.016
X328.613Y-149.066
X328.613Y-168.116
X334.962Y-108.426
X334.962Y-127.476
X334.962Y-146.526
X334.962Y-165.576
X347.662Y-110.966
X347.662Y-130.016
X347.662Y-149.066
X347.662Y-168.116
X354.012Y-108.426
X354.012Y-127.476
X354.012Y-146.526
X354.012Y-165.576
X366.712Y-110.966
X366.712Y-130.016
X366.712Y-149.066
X366.712Y-168.116
X373.062Y-108.426
X373.062Y-127.476
X373.062Y-146.526
X373.062Y-165.576
T3
X45.744Y-113.03G85X44.744Y-113.03
G05
X45.744Y-115.57G85X44.744Y-115.57
G05
X45.744Y-118.11G85X44.744Y-118.11
G05
X45.744Y-120.65G85X44.744Y-120.65
G05
X45.744Y-123.19G85X44.744Y-123.19
G05
X45.744Y-166.37G85X44.744Y-166.37
G05
X45.744Y-168.91G85X44.744Y-168.91
G05
X45.744Y-171.45G85X44.744Y-171.45
G05
X306.275Y-113.03G85X307.275Y-113.03
G05
X306.275Y-115.57G85X307.275Y-115.57
G05
X306.275Y-118.11G85X307.275Y-118.11
G05
X306.275Y-120.65G85X307.275Y-120.65
G05
X306.275Y-123.19G85X307.275Y-123.19
G05
X306.275Y-166.37G85X307.275Y-166.37
G05
X306.275Y-168.91G85X307.275Y-168.91
G05
X306.275Y-171.45G85X307.275Y-171.45
G05
X321.175Y-113.03G85X320.175Y-113.03
G05
X321.175Y-115.57G85X320.175Y-115.57
G05
X321.175Y-118.11G85X320.175Y-118.11
G05
X321.175Y-120.65G85X320.175Y-120.65
G05
X321.175Y-123.19G85X320.175Y-123.19
G05
X321.175Y-166.37G85X320.175Y-166.37
G05
X321.175Y-168.91G85X320.175Y-168.91
G05
X321.175Y-171.45G85X320.175Y-171.45
G05
X381.681Y-113.03G85X382.681Y-113.03
G05
X381.681Y-115.57G85X382.681Y-115.57
G05
X381.681Y-118.11G85X382.681Y-118.11
G05
X381.681Y-120.65G85X382.681Y-120.65
G05
X381.681Y-123.19G85X382.681Y-123.19
G05
X381.681Y-166.37G85X382.681Y-166.37
G05
X381.681Y-168.91G85X382.681Y-168.91
G05
X381.681Y-171.45G85X382.681Y-171.45
G05
M30
