G04 #@! TF.GenerationSoftware,KiCad,Pcbnew,8.0.3*
G04 #@! TF.CreationDate,2024-09-06T14:15:15-05:00*
G04 #@! TF.ProjectId,keyboard,6b657962-6f61-4726-942e-6b696361645f,rev?*
G04 #@! TF.SameCoordinates,Original*
G04 #@! TF.FileFunction,Copper,L1,Top*
G04 #@! TF.FilePolarity,Positive*
%FSLAX46Y46*%
G04 Gerber Fmt 4.6, Leading zero omitted, Abs format (unit mm)*
G04 Created by KiCad (PCBNEW 8.0.3) date 2024-09-06 14:15:15*
%MOMM*%
%LPD*%
G01*
G04 APERTURE LIST*
G04 #@! TA.AperFunction,ComponentPad*
%ADD10C,2.300000*%
G04 #@! TD*
G04 #@! TA.AperFunction,ComponentPad*
%ADD11O,2.700000X1.700000*%
G04 #@! TD*
G04 #@! TA.AperFunction,ComponentPad*
%ADD12C,1.524000*%
G04 #@! TD*
G04 #@! TA.AperFunction,ViaPad*
%ADD13C,0.800000*%
G04 #@! TD*
G04 #@! TA.AperFunction,Conductor*
%ADD14C,0.250000*%
G04 #@! TD*
G04 APERTURE END LIST*
D10*
X71800000Y-118206250D03*
X78800000Y-119256250D03*
X328612500Y-168116250D03*
X334962500Y-165576250D03*
X90850000Y-175356250D03*
X97850000Y-176406250D03*
X139065000Y-130016250D03*
X145415000Y-127476250D03*
X224790000Y-149066250D03*
X231140000Y-146526250D03*
X214675000Y-137256250D03*
X221675000Y-138306250D03*
X52750000Y-118206250D03*
X59750000Y-119256250D03*
X91440000Y-168116250D03*
X97790000Y-165576250D03*
X286702500Y-149066250D03*
X293052500Y-146526250D03*
X290875000Y-137256250D03*
X297875000Y-138306250D03*
X195625000Y-137256250D03*
X202625000Y-138306250D03*
X119425000Y-137256250D03*
X126425000Y-138306250D03*
D11*
X45243750Y-123190000D03*
X45243750Y-120650000D03*
X45243750Y-118110000D03*
X45243750Y-115570000D03*
X45243750Y-113030000D03*
D10*
X328612500Y-110966250D03*
X334962500Y-108426250D03*
X257537500Y-175356250D03*
X264537500Y-176406250D03*
X129540000Y-110966250D03*
X135890000Y-108426250D03*
X366122500Y-175356250D03*
X373122500Y-176406250D03*
X286702500Y-110966250D03*
X293052500Y-108426250D03*
X272415000Y-130016250D03*
X278765000Y-127476250D03*
X148590000Y-110966250D03*
X154940000Y-108426250D03*
X328022500Y-118206250D03*
X335022500Y-119256250D03*
X328022500Y-175356250D03*
X335022500Y-176406250D03*
X109900000Y-118206250D03*
X116900000Y-119256250D03*
X186100000Y-156306250D03*
X193100000Y-157356250D03*
X72390000Y-110966250D03*
X78740000Y-108426250D03*
X328612500Y-130016250D03*
X334962500Y-127476250D03*
X366122500Y-137256250D03*
X373122500Y-138306250D03*
D11*
X382181250Y-113030000D03*
X382181250Y-115570000D03*
X382181250Y-118110000D03*
X382181250Y-120650000D03*
X382181250Y-123190000D03*
D10*
X347072500Y-118206250D03*
X354072500Y-119256250D03*
X186690000Y-110966250D03*
X193040000Y-108426250D03*
X62275000Y-156306250D03*
X69275000Y-157356250D03*
X347072500Y-137256250D03*
X354072500Y-138306250D03*
X62865000Y-149066250D03*
X69215000Y-146526250D03*
D11*
X320675000Y-123190000D03*
X320675000Y-120650000D03*
X320675000Y-118110000D03*
X320675000Y-115570000D03*
X320675000Y-113030000D03*
D10*
X90850000Y-156306250D03*
X97850000Y-157356250D03*
X252775000Y-137256250D03*
X259775000Y-138306250D03*
X138475000Y-137256250D03*
X145475000Y-138306250D03*
X91440000Y-110966250D03*
X97790000Y-108426250D03*
X148000000Y-156306250D03*
X155000000Y-157356250D03*
X366712500Y-149066250D03*
X373062500Y-146526250D03*
X128950000Y-118206250D03*
X135950000Y-119256250D03*
X100965000Y-130016250D03*
X107315000Y-127476250D03*
X81915000Y-130016250D03*
X88265000Y-127476250D03*
X262300000Y-118206250D03*
X269300000Y-119256250D03*
X236106250Y-175356250D03*
X243106250Y-176406250D03*
X186100000Y-118206250D03*
X193100000Y-119256250D03*
X177165000Y-130016250D03*
X183515000Y-127476250D03*
X196215000Y-130016250D03*
X202565000Y-127476250D03*
X109900000Y-156306250D03*
X116900000Y-157356250D03*
X215265000Y-130016250D03*
X221615000Y-127476250D03*
X91440000Y-149066250D03*
X97790000Y-146526250D03*
X148000000Y-118206250D03*
X155000000Y-119256250D03*
X243250000Y-156306250D03*
X250250000Y-157356250D03*
X205150000Y-118206250D03*
X212150000Y-119256250D03*
X224200000Y-156306250D03*
X231200000Y-157356250D03*
D11*
X306775000Y-166370000D03*
X306775000Y-168910000D03*
X306775000Y-171450000D03*
D10*
X167640000Y-110966250D03*
X173990000Y-108426250D03*
X100375000Y-137256250D03*
X107375000Y-138306250D03*
X262300000Y-156306250D03*
X269300000Y-157356250D03*
X205740000Y-110966250D03*
X212090000Y-108426250D03*
X110490000Y-110966250D03*
X116840000Y-108426250D03*
X167640000Y-149066250D03*
X173990000Y-146526250D03*
X347072500Y-156306250D03*
X354072500Y-157356250D03*
X67627500Y-168116250D03*
X73977500Y-165576250D03*
X128950000Y-156306250D03*
X135950000Y-157356250D03*
X129540000Y-149066250D03*
X135890000Y-146526250D03*
X347662500Y-110966250D03*
X354012500Y-108426250D03*
X347662500Y-168116250D03*
X354012500Y-165576250D03*
X53340000Y-110966250D03*
X59690000Y-108426250D03*
X167050000Y-156306250D03*
X174050000Y-157356250D03*
X148590000Y-149066250D03*
X154940000Y-146526250D03*
X234315000Y-130016250D03*
X240665000Y-127476250D03*
X205150000Y-156306250D03*
X212150000Y-157356250D03*
X366122500Y-118206250D03*
X373122500Y-119256250D03*
X262890000Y-110966250D03*
X269240000Y-108426250D03*
X347662500Y-149066250D03*
X354012500Y-146526250D03*
X236696250Y-168116250D03*
X243046250Y-165576250D03*
D11*
X306775000Y-113030000D03*
X306775000Y-115570000D03*
X306775000Y-118110000D03*
X306775000Y-120650000D03*
X306775000Y-123190000D03*
D10*
X243250000Y-118206250D03*
X250250000Y-119256250D03*
X164668750Y-175356250D03*
X171668750Y-176406250D03*
X90850000Y-118206250D03*
X97850000Y-119256250D03*
X347072500Y-175356250D03*
X354072500Y-176406250D03*
X328612500Y-149066250D03*
X334962500Y-146526250D03*
X328022500Y-137256250D03*
X335022500Y-138306250D03*
X286112500Y-156306250D03*
X293112500Y-157356250D03*
D11*
X382181250Y-166370000D03*
X382181250Y-168910000D03*
X382181250Y-171450000D03*
D10*
X262890000Y-149066250D03*
X269240000Y-146526250D03*
X278968750Y-175356250D03*
X285968750Y-176406250D03*
X291465000Y-130016250D03*
X297815000Y-127476250D03*
X366122500Y-156306250D03*
X373122500Y-157356250D03*
X328022500Y-156306250D03*
X335022500Y-157356250D03*
X67037500Y-175356250D03*
X74037500Y-176406250D03*
X57512500Y-137256250D03*
X64512500Y-138306250D03*
X279558750Y-168116250D03*
X285908750Y-165576250D03*
X176575000Y-137256250D03*
X183575000Y-138306250D03*
X286112500Y-118206250D03*
X293112500Y-119256250D03*
X258127500Y-168116250D03*
X264477500Y-165576250D03*
X347662500Y-130016250D03*
X354012500Y-127476250D03*
X58102500Y-130016250D03*
X64452500Y-127476250D03*
X253365000Y-130016250D03*
X259715000Y-127476250D03*
X110490000Y-149066250D03*
X116840000Y-146526250D03*
X158115000Y-130016250D03*
X164465000Y-127476250D03*
X205740000Y-149066250D03*
X212090000Y-146526250D03*
X165258750Y-168116250D03*
X171608750Y-165576250D03*
D11*
X45243750Y-171450000D03*
X45243750Y-168910000D03*
X45243750Y-166370000D03*
D10*
X366712500Y-110966250D03*
X373062500Y-108426250D03*
X243840000Y-149066250D03*
X250190000Y-146526250D03*
X167050000Y-118206250D03*
X174050000Y-119256250D03*
X186690000Y-149066250D03*
X193040000Y-146526250D03*
X366712500Y-168116250D03*
X373062500Y-165576250D03*
X243840000Y-110966250D03*
X250190000Y-108426250D03*
X224790000Y-110966250D03*
X231140000Y-108426250D03*
X224200000Y-118206250D03*
X231200000Y-119256250D03*
X157525000Y-137256250D03*
X164525000Y-138306250D03*
X233725000Y-137256250D03*
X240725000Y-138306250D03*
D11*
X320675000Y-171450000D03*
X320675000Y-168910000D03*
X320675000Y-166370000D03*
D10*
X120015000Y-130016250D03*
X126365000Y-127476250D03*
X366712500Y-130016250D03*
X373062500Y-127476250D03*
X81325000Y-137256250D03*
X88325000Y-138306250D03*
X271825000Y-137256250D03*
X278825000Y-138306250D03*
D12*
X190500000Y-180086000D03*
X193040000Y-180086000D03*
X195580000Y-180086000D03*
X198120000Y-180086000D03*
X200660000Y-180086000D03*
X203200000Y-180086000D03*
X205740000Y-180086000D03*
X208280000Y-180086000D03*
X210820000Y-180086000D03*
X210820000Y-177546000D03*
X210820000Y-175006000D03*
X210820000Y-172466000D03*
X210820000Y-169926000D03*
X210820000Y-167386000D03*
X210820000Y-164846000D03*
X208280000Y-164846000D03*
X205740000Y-164846000D03*
X203200000Y-164846000D03*
X200660000Y-164846000D03*
X198120000Y-164846000D03*
X195580000Y-164846000D03*
X193040000Y-164846000D03*
X190500000Y-164846000D03*
D13*
X178308000Y-161036000D03*
X166624000Y-123031250D03*
X182626000Y-161036000D03*
X176212500Y-142081250D03*
X367506250Y-162718750D03*
X334168750Y-162718750D03*
X221350000Y-181102000D03*
X222030551Y-181834704D03*
X342900000Y-176212500D03*
X222691675Y-182584985D03*
D14*
X99410646Y-178593750D02*
X102548396Y-175456000D01*
X52750000Y-124663750D02*
X58102500Y-130016250D01*
X75767850Y-169430350D02*
X81242850Y-169430350D01*
X62865000Y-149066250D02*
X62865000Y-155716250D01*
X124063208Y-175456000D02*
X128911208Y-180304000D01*
X58102500Y-136666250D02*
X57512500Y-137256250D01*
X81242850Y-169430350D02*
X90406250Y-178593750D01*
X73303750Y-166966250D02*
X75767850Y-169430350D01*
X199573000Y-181173000D02*
X200660000Y-180086000D01*
X62275000Y-162763750D02*
X67627500Y-168116250D01*
X67627500Y-168116250D02*
X68777500Y-166966250D01*
X62865000Y-142608750D02*
X62865000Y-149066250D01*
X53340000Y-117616250D02*
X52750000Y-118206250D01*
X58102500Y-130016250D02*
X58102500Y-136666250D01*
X90406250Y-178593750D02*
X99410646Y-178593750D01*
X52750000Y-118206250D02*
X52750000Y-124663750D01*
X57512500Y-137256250D02*
X62865000Y-142608750D01*
X62275000Y-156306250D02*
X62275000Y-162763750D01*
X67627500Y-174766250D02*
X67037500Y-175356250D01*
X128911208Y-180304000D02*
X188124396Y-180304000D01*
X67627500Y-168116250D02*
X67627500Y-174766250D01*
X68777500Y-166966250D02*
X73303750Y-166966250D01*
X188993396Y-181173000D02*
X199573000Y-181173000D01*
X53340000Y-110966250D02*
X53340000Y-117616250D01*
X62865000Y-155716250D02*
X62275000Y-156306250D01*
X188124396Y-180304000D02*
X188993396Y-181173000D01*
X102548396Y-175456000D02*
X124063208Y-175456000D01*
X91440000Y-168116250D02*
X91440000Y-174766250D01*
X91440000Y-174766250D02*
X90850000Y-175356250D01*
X72390000Y-117616250D02*
X71800000Y-118206250D01*
X72390000Y-110966250D02*
X72390000Y-117616250D01*
X90850000Y-167526250D02*
X91440000Y-168116250D01*
X81325000Y-138951250D02*
X91440000Y-149066250D01*
X81915000Y-130016250D02*
X81915000Y-136666250D01*
X71800000Y-118206250D02*
X71800000Y-119901250D01*
X191262000Y-176530000D02*
X187938000Y-179854000D01*
X81325000Y-137256250D02*
X81325000Y-138951250D01*
X91440000Y-155716250D02*
X90850000Y-156306250D01*
X102362000Y-175006000D02*
X99224250Y-178143750D01*
X93637500Y-178143750D02*
X90850000Y-175356250D01*
X91440000Y-149066250D02*
X91440000Y-155716250D01*
X191333000Y-176459000D02*
X191262000Y-176530000D01*
X99224250Y-178143750D02*
X93637500Y-178143750D01*
X129097604Y-179854000D02*
X124249604Y-175006000D01*
X191262000Y-176530000D02*
X199644000Y-176530000D01*
X124249604Y-175006000D02*
X102362000Y-175006000D01*
X71800000Y-119901250D02*
X81915000Y-130016250D01*
X199644000Y-176530000D02*
X203200000Y-180086000D01*
X90850000Y-156306250D02*
X90850000Y-167526250D01*
X187938000Y-179854000D02*
X129097604Y-179854000D01*
X81915000Y-136666250D02*
X81325000Y-137256250D01*
X201663000Y-176009000D02*
X191146604Y-176009000D01*
X129284000Y-179404000D02*
X109900000Y-160020000D01*
X90850000Y-119901250D02*
X100965000Y-130016250D01*
X100375000Y-137256250D02*
X110490000Y-147371250D01*
X191146604Y-176009000D02*
X187751604Y-179404000D01*
X91440000Y-117616250D02*
X90850000Y-118206250D01*
X109900000Y-160020000D02*
X109900000Y-156306250D01*
X110490000Y-155716250D02*
X109900000Y-156306250D01*
X205740000Y-180086000D02*
X201663000Y-176009000D01*
X110490000Y-149066250D02*
X110490000Y-155716250D01*
X91440000Y-110966250D02*
X91440000Y-117616250D01*
X100965000Y-136666250D02*
X100375000Y-137256250D01*
X187751604Y-179404000D02*
X129284000Y-179404000D01*
X90850000Y-118206250D02*
X90850000Y-119901250D01*
X110490000Y-147371250D02*
X110490000Y-149066250D01*
X100965000Y-130016250D02*
X100965000Y-136666250D01*
X120015000Y-136666250D02*
X119425000Y-137256250D01*
X129540000Y-149066250D02*
X129540000Y-155716250D01*
X119425000Y-137256250D02*
X119425000Y-138951250D01*
X203753000Y-175559000D02*
X190960208Y-175559000D01*
X110490000Y-117616250D02*
X109900000Y-118206250D01*
X190960208Y-175559000D02*
X187565208Y-178954000D01*
X129540000Y-155716250D02*
X128950000Y-156306250D01*
X120015000Y-130016250D02*
X120015000Y-136666250D01*
X151597750Y-178954000D02*
X128950000Y-156306250D01*
X109900000Y-118206250D02*
X109900000Y-119901250D01*
X119425000Y-138951250D02*
X129540000Y-149066250D01*
X119995000Y-130036250D02*
X120015000Y-130016250D01*
X187565208Y-178954000D02*
X151597750Y-178954000D01*
X109900000Y-119901250D02*
X120015000Y-130016250D01*
X110490000Y-110966250D02*
X110490000Y-117616250D01*
X208280000Y-180086000D02*
X203753000Y-175559000D01*
X128950000Y-118206250D02*
X128950000Y-119901250D01*
X205843000Y-175109000D02*
X190773812Y-175109000D01*
X163772000Y-178504000D02*
X148000000Y-162732000D01*
X129540000Y-110966250D02*
X129540000Y-117616250D01*
X138475000Y-137256250D02*
X138475000Y-138951250D01*
X210820000Y-180086000D02*
X205843000Y-175109000D01*
X148590000Y-155716250D02*
X148000000Y-156306250D01*
X128950000Y-119901250D02*
X139065000Y-130016250D01*
X148000000Y-162732000D02*
X148000000Y-156306250D01*
X138475000Y-138951250D02*
X148590000Y-149066250D01*
X190773812Y-175109000D02*
X187378812Y-178504000D01*
X148590000Y-149066250D02*
X148590000Y-155716250D01*
X139065000Y-130016250D02*
X139065000Y-136666250D01*
X187378812Y-178504000D02*
X163772000Y-178504000D01*
X129540000Y-117616250D02*
X128950000Y-118206250D01*
X148000000Y-156306250D02*
X147268750Y-155575000D01*
X139065000Y-136666250D02*
X138475000Y-137256250D01*
X148000000Y-119901250D02*
X158115000Y-130016250D01*
X165258750Y-174766250D02*
X164668750Y-175356250D01*
X167366500Y-178054000D02*
X164668750Y-175356250D01*
X167640000Y-155716250D02*
X167050000Y-156306250D01*
X187192416Y-178054000D02*
X167366500Y-178054000D01*
X190587416Y-174659000D02*
X187192416Y-178054000D01*
X157525000Y-137256250D02*
X157525000Y-138951250D01*
X148590000Y-110966250D02*
X148590000Y-117616250D01*
X165258750Y-168116250D02*
X165258750Y-174766250D01*
X158115000Y-130016250D02*
X158115000Y-136666250D01*
X148590000Y-117616250D02*
X148000000Y-118206250D01*
X210820000Y-177546000D02*
X207933000Y-174659000D01*
X157525000Y-138951250D02*
X167640000Y-149066250D01*
X158115000Y-136666250D02*
X157525000Y-137256250D01*
X207933000Y-174659000D02*
X190587416Y-174659000D01*
X148000000Y-118206250D02*
X148000000Y-119901250D01*
X167640000Y-149066250D02*
X167640000Y-155716250D01*
X167640000Y-117616250D02*
X167050000Y-118206250D01*
X167640000Y-110966250D02*
X167640000Y-117616250D01*
X210023000Y-174209000D02*
X210820000Y-175006000D01*
X176575000Y-137256250D02*
X176575000Y-138951250D01*
X186690000Y-155716250D02*
X186100000Y-156306250D01*
X190465000Y-174209000D02*
X186100000Y-169844000D01*
X176575000Y-138951250D02*
X186690000Y-149066250D01*
X167050000Y-119901250D02*
X177165000Y-130016250D01*
X167050000Y-118206250D02*
X167050000Y-119901250D01*
X177165000Y-136666250D02*
X176575000Y-137256250D01*
X190465000Y-174209000D02*
X210023000Y-174209000D01*
X177165000Y-130016250D02*
X177165000Y-136666250D01*
X186100000Y-169844000D02*
X186100000Y-156306250D01*
X186690000Y-149066250D02*
X186690000Y-155716250D01*
X178308000Y-147828000D02*
X168910000Y-138430000D01*
X168910000Y-138430000D02*
X168910000Y-125317250D01*
X168910000Y-125317250D02*
X166624000Y-123031250D01*
X178308000Y-161036000D02*
X178308000Y-147828000D01*
X182626000Y-148590000D02*
X182673625Y-148542375D01*
X182673625Y-148542375D02*
X176212500Y-142081250D01*
X182626000Y-161036000D02*
X182626000Y-148590000D01*
X221132250Y-159374000D02*
X224200000Y-156306250D01*
X190512396Y-159374000D02*
X221132250Y-159374000D01*
X205740000Y-110966250D02*
X205740000Y-117616250D01*
X210820000Y-169926000D02*
X207437000Y-173309000D01*
X215265000Y-136666250D02*
X214675000Y-137256250D01*
X205150000Y-119901250D02*
X215265000Y-130016250D01*
X187000000Y-169471208D02*
X187000000Y-162886396D01*
X215265000Y-130016250D02*
X215265000Y-136666250D01*
X224790000Y-149066250D02*
X224790000Y-155716250D01*
X187000000Y-162886396D02*
X190512396Y-159374000D01*
X190837792Y-173309000D02*
X187000000Y-169471208D01*
X214675000Y-137256250D02*
X214675000Y-138951250D01*
X224790000Y-155716250D02*
X224200000Y-156306250D01*
X205740000Y-117616250D02*
X205150000Y-118206250D01*
X205150000Y-118206250D02*
X205150000Y-119901250D01*
X207437000Y-173309000D02*
X190837792Y-173309000D01*
X224200000Y-156306250D02*
X223900000Y-156306250D01*
X214675000Y-138951250D02*
X224790000Y-149066250D01*
X210820000Y-172466000D02*
X209527000Y-173759000D01*
X186690000Y-117616250D02*
X186100000Y-118206250D01*
X190326000Y-158924000D02*
X202518000Y-158924000D01*
X205740000Y-149066250D02*
X205740000Y-155716250D01*
X195625000Y-138951250D02*
X205740000Y-149066250D01*
X202518000Y-158924000D02*
X205135750Y-156306250D01*
X196215000Y-136666250D02*
X195625000Y-137256250D01*
X205135750Y-156306250D02*
X205150000Y-156306250D01*
X205740000Y-155716250D02*
X205150000Y-156306250D01*
X186550000Y-169657604D02*
X186550000Y-162700000D01*
X195625000Y-137256250D02*
X195625000Y-138951250D01*
X186100000Y-118206250D02*
X186100000Y-119901250D01*
X196215000Y-130016250D02*
X196215000Y-136666250D01*
X209527000Y-173759000D02*
X190651396Y-173759000D01*
X190651396Y-173759000D02*
X186550000Y-169657604D01*
X186550000Y-162700000D02*
X190326000Y-158924000D01*
X186100000Y-119901250D02*
X196215000Y-130016250D01*
X186690000Y-110966250D02*
X186690000Y-117616250D01*
X191024188Y-172859000D02*
X187452000Y-169286812D01*
X243840000Y-149066250D02*
X243840000Y-155716250D01*
X187452000Y-163070792D02*
X190698792Y-159824000D01*
X234315000Y-130016250D02*
X234315000Y-136666250D01*
X224790000Y-117616250D02*
X224200000Y-118206250D01*
X210820000Y-167386000D02*
X205347000Y-172859000D01*
X187452000Y-169286812D02*
X187452000Y-163070792D01*
X224200000Y-119901250D02*
X234315000Y-130016250D01*
X233725000Y-137256250D02*
X233725000Y-138951250D01*
X243250000Y-156306250D02*
X243250000Y-161562500D01*
X239732250Y-159824000D02*
X243250000Y-156306250D01*
X233725000Y-138951250D02*
X243840000Y-149066250D01*
X236696250Y-168116250D02*
X236696250Y-174766250D01*
X243840000Y-155716250D02*
X243250000Y-156306250D01*
X224790000Y-110966250D02*
X224790000Y-117616250D01*
X234315000Y-136666250D02*
X233725000Y-137256250D01*
X224200000Y-118206250D02*
X224200000Y-119901250D01*
X205347000Y-172859000D02*
X191024188Y-172859000D01*
X190698792Y-159824000D02*
X239732250Y-159824000D01*
X243250000Y-161562500D02*
X236696250Y-168116250D01*
X236696250Y-174766250D02*
X236106250Y-175356250D01*
X286702500Y-155716250D02*
X286112500Y-156306250D01*
X213048000Y-160724000D02*
X230655250Y-178331250D01*
X271825000Y-137256250D02*
X274892500Y-137256250D01*
X262300000Y-118206250D02*
X262300000Y-119901250D01*
X262890000Y-117616250D02*
X262300000Y-118206250D01*
X230655250Y-178331250D02*
X275993750Y-178331250D01*
X188352000Y-163443584D02*
X191071584Y-160724000D01*
X279558750Y-174766250D02*
X278968750Y-175356250D01*
X274892500Y-137256250D02*
X286702500Y-149066250D01*
X279558750Y-168116250D02*
X279558750Y-174766250D01*
X191071584Y-160724000D02*
X213048000Y-160724000D01*
X208280000Y-164846000D02*
X201167000Y-171959000D01*
X191396980Y-171959000D02*
X188352000Y-168914020D01*
X262300000Y-119901250D02*
X272415000Y-130016250D01*
X188352000Y-168914020D02*
X188352000Y-163443584D01*
X201167000Y-171959000D02*
X191396980Y-171959000D01*
X286112500Y-156306250D02*
X279558750Y-162860000D01*
X286702500Y-149066250D02*
X286702500Y-155716250D01*
X262890000Y-110966250D02*
X262890000Y-117616250D01*
X272415000Y-136666250D02*
X271825000Y-137256250D01*
X279558750Y-162860000D02*
X279558750Y-168116250D01*
X275993750Y-178331250D02*
X278968750Y-175356250D01*
X272415000Y-130016250D02*
X272415000Y-136666250D01*
X328612500Y-174766250D02*
X328022500Y-175356250D01*
X328612500Y-117616250D02*
X328022500Y-118206250D01*
X99597042Y-179043750D02*
X57917500Y-179043750D01*
X223256695Y-181102000D02*
X225034695Y-179324000D01*
X322421250Y-168116250D02*
X320675000Y-166370000D01*
X328568400Y-155760350D02*
X328022500Y-156306250D01*
X334168750Y-162718750D02*
X334010000Y-162718750D01*
X220459000Y-181623000D02*
X188807000Y-181623000D01*
X378530000Y-162718750D02*
X367506250Y-162718750D01*
X382181250Y-166370000D02*
X378530000Y-162718750D01*
X328022500Y-167526250D02*
X328612500Y-168116250D01*
X128684000Y-180754000D02*
X123836000Y-175906000D01*
X293821000Y-179324000D02*
X306775000Y-166370000D01*
X188807000Y-181623000D02*
X187938000Y-180754000D01*
X220980000Y-181102000D02*
X220459000Y-181623000D01*
X334010000Y-162718750D02*
X328612500Y-168116250D01*
X328022500Y-129426250D02*
X328612500Y-130016250D01*
X187938000Y-180754000D02*
X128684000Y-180754000D01*
X328022500Y-156306250D02*
X328022500Y-167526250D01*
X57917500Y-179043750D02*
X45243750Y-166370000D01*
X102734792Y-175906000D02*
X99597042Y-179043750D01*
X328612500Y-130016250D02*
X328612500Y-136666250D01*
X328568400Y-149110350D02*
X328568400Y-155760350D01*
X328612500Y-149066250D02*
X328568400Y-149110350D01*
X328612500Y-110966250D02*
X328612500Y-117616250D01*
X328022500Y-118206250D02*
X328022500Y-129426250D01*
X221350000Y-181102000D02*
X220980000Y-181102000D01*
X328022500Y-137256250D02*
X328022500Y-148476250D01*
X328612500Y-168116250D02*
X322421250Y-168116250D01*
X225034695Y-179324000D02*
X293821000Y-179324000D01*
X328612500Y-168116250D02*
X328612500Y-174766250D01*
X328612500Y-136666250D02*
X328022500Y-137256250D01*
X123836000Y-175906000D02*
X102734792Y-175906000D01*
X221350000Y-181102000D02*
X223256695Y-181102000D01*
X328022500Y-148476250D02*
X328612500Y-149066250D01*
X99783438Y-179493750D02*
X102921188Y-176356000D01*
X343756250Y-175356250D02*
X347072500Y-175356250D01*
X347072500Y-156306250D02*
X347072500Y-167526250D01*
X347662500Y-136666250D02*
X347072500Y-137256250D01*
X347662500Y-110966250D02*
X347662500Y-117616250D01*
X123649604Y-176356000D02*
X128497604Y-181204000D01*
X223345299Y-181827000D02*
X225398299Y-179774000D01*
X347662500Y-168116250D02*
X347662500Y-174766250D01*
X347072500Y-118206250D02*
X347072500Y-129426250D01*
X188620604Y-182073000D02*
X220803695Y-182073000D01*
X347662500Y-130016250D02*
X347662500Y-136666250D01*
X220803695Y-182073000D02*
X221049695Y-181827000D01*
X347662500Y-149066250D02*
X347662500Y-155716250D01*
X295911000Y-179774000D02*
X306775000Y-168910000D01*
X221049695Y-181827000D02*
X223345299Y-181827000D01*
X347072500Y-167526250D02*
X347662500Y-168116250D01*
X342900000Y-176212500D02*
X343756250Y-175356250D01*
X347662500Y-174766250D02*
X347072500Y-175356250D01*
X347072500Y-137256250D02*
X347072500Y-148476250D01*
X55827500Y-179493750D02*
X99783438Y-179493750D01*
X102921188Y-176356000D02*
X123649604Y-176356000D01*
X128497604Y-181204000D02*
X187751604Y-181204000D01*
X187751604Y-181204000D02*
X188620604Y-182073000D01*
X347072500Y-129426250D02*
X347662500Y-130016250D01*
X45243750Y-168910000D02*
X55827500Y-179493750D01*
X347662500Y-155716250D02*
X347072500Y-156306250D01*
X347662500Y-117616250D02*
X347072500Y-118206250D01*
X347072500Y-148476250D02*
X347662500Y-149066250D01*
X225398299Y-179774000D02*
X295911000Y-179774000D01*
X366712500Y-174766250D02*
X366122500Y-175356250D01*
X45243750Y-171481750D02*
X45243750Y-171450000D01*
X366122500Y-175356250D02*
X363597500Y-177881250D01*
X382181250Y-171450000D02*
X380050000Y-173581250D01*
X366712500Y-168116250D02*
X366712500Y-174766250D01*
X366122500Y-156306250D02*
X366122500Y-167526250D01*
X222691675Y-182584985D02*
X188496193Y-182584985D01*
X366712500Y-130016250D02*
X366712500Y-136666250D01*
X366122500Y-118206250D02*
X366122500Y-129426250D01*
X222691675Y-182584985D02*
X223466888Y-182584985D01*
X366712500Y-149066250D02*
X366712500Y-155716250D01*
X366122500Y-167526250D02*
X366712500Y-168116250D01*
X225827873Y-180224000D02*
X298001000Y-180224000D01*
X366712500Y-110966250D02*
X366712500Y-117616250D01*
X128267208Y-181610000D02*
X55372000Y-181610000D01*
X363597500Y-177881250D02*
X327106250Y-177881250D01*
X366712500Y-117616250D02*
X366122500Y-118206250D01*
X380050000Y-173581250D02*
X367897500Y-173581250D01*
X366712500Y-136666250D02*
X366122500Y-137256250D01*
X366122500Y-137256250D02*
X366122500Y-148476250D01*
X188496193Y-182584985D02*
X187565208Y-181654000D01*
X223466888Y-182584985D02*
X225827873Y-180224000D01*
X187565208Y-181654000D02*
X128311208Y-181654000D01*
X128311208Y-181654000D02*
X128267208Y-181610000D01*
X55372000Y-181610000D02*
X45243750Y-171481750D01*
X366122500Y-148476250D02*
X366712500Y-149066250D01*
X366712500Y-155716250D02*
X366122500Y-156306250D01*
X327106250Y-177881250D02*
X320675000Y-171450000D01*
X298001000Y-180224000D02*
X306775000Y-171450000D01*
X366122500Y-129426250D02*
X366712500Y-130016250D01*
X367897500Y-173581250D02*
X366122500Y-175356250D01*
X218694000Y-160274000D02*
X236301250Y-177881250D01*
X191210584Y-172409000D02*
X187902000Y-169100416D01*
X256443750Y-175356250D02*
X257537500Y-175356250D01*
X190885188Y-160274000D02*
X218694000Y-160274000D01*
X252775000Y-137256250D02*
X252775000Y-138951250D01*
X187902000Y-163257188D02*
X190885188Y-160274000D01*
X253918750Y-177881250D02*
X256443750Y-175356250D01*
X243840000Y-110966250D02*
X243840000Y-117616250D01*
X210820000Y-164846000D02*
X203257000Y-172409000D01*
X253365000Y-130016250D02*
X253365000Y-136666250D01*
X262300000Y-156306250D02*
X262300000Y-163943750D01*
X243250000Y-119901250D02*
X253365000Y-130016250D01*
X262890000Y-155716250D02*
X262300000Y-156306250D01*
X262890000Y-149066250D02*
X262890000Y-155716250D01*
X262300000Y-163943750D02*
X258127500Y-168116250D01*
X243250000Y-118206250D02*
X243250000Y-119901250D01*
X252775000Y-138951250D02*
X262890000Y-149066250D01*
X258127500Y-168116250D02*
X258127500Y-174766250D01*
X236301250Y-177881250D02*
X253918750Y-177881250D01*
X203257000Y-172409000D02*
X191210584Y-172409000D01*
X253365000Y-136666250D02*
X252775000Y-137256250D01*
X243840000Y-117616250D02*
X243250000Y-118206250D01*
X258127500Y-174766250D02*
X257537500Y-175356250D01*
X187902000Y-169100416D02*
X187902000Y-163257188D01*
X286112500Y-124663750D02*
X291465000Y-130016250D01*
X298450000Y-166116000D02*
X285784750Y-178781250D01*
X286702500Y-117616250D02*
X286112500Y-118206250D01*
X188802000Y-168727624D02*
X191583376Y-171509000D01*
X230468854Y-178781250D02*
X212919604Y-161232000D01*
X291465000Y-136666250D02*
X290875000Y-137256250D01*
X290875000Y-137256250D02*
X290875000Y-140062500D01*
X298450000Y-147637500D02*
X298450000Y-166116000D01*
X188802000Y-163629980D02*
X188802000Y-168727624D01*
X199077000Y-171509000D02*
X205740000Y-164846000D01*
X191199980Y-161232000D02*
X188802000Y-163629980D01*
X286112500Y-118206250D02*
X286112500Y-124663750D01*
X291465000Y-130016250D02*
X291465000Y-136666250D01*
X290875000Y-140062500D02*
X298450000Y-147637500D01*
X285784750Y-178781250D02*
X230468854Y-178781250D01*
X286702500Y-110966250D02*
X286702500Y-117616250D01*
X212919604Y-161232000D02*
X191199980Y-161232000D01*
X191583376Y-171509000D02*
X199077000Y-171509000D01*
M02*
