G04 #@! TF.GenerationSoftware,KiCad,Pcbnew,8.0.3*
G04 #@! TF.CreationDate,2024-09-06T14:15:15-05:00*
G04 #@! TF.ProjectId,keyboard,6b657962-6f61-4726-942e-6b696361645f,rev?*
G04 #@! TF.SameCoordinates,Original*
G04 #@! TF.FileFunction,Copper,L2,Bot*
G04 #@! TF.FilePolarity,Positive*
%FSLAX46Y46*%
G04 Gerber Fmt 4.6, Leading zero omitted, Abs format (unit mm)*
G04 Created by KiCad (PCBNEW 8.0.3) date 2024-09-06 14:15:15*
%MOMM*%
%LPD*%
G01*
G04 APERTURE LIST*
G04 Aperture macros list*
%AMRoundRect*
0 Rectangle with rounded corners*
0 $1 Rounding radius*
0 $2 $3 $4 $5 $6 $7 $8 $9 X,Y pos of 4 corners*
0 Add a 4 corners polygon primitive as box body*
4,1,4,$2,$3,$4,$5,$6,$7,$8,$9,$2,$3,0*
0 Add four circle primitives for the rounded corners*
1,1,$1+$1,$2,$3*
1,1,$1+$1,$4,$5*
1,1,$1+$1,$6,$7*
1,1,$1+$1,$8,$9*
0 Add four rect primitives between the rounded corners*
20,1,$1+$1,$2,$3,$4,$5,0*
20,1,$1+$1,$4,$5,$6,$7,0*
20,1,$1+$1,$6,$7,$8,$9,0*
20,1,$1+$1,$8,$9,$2,$3,0*%
G04 Aperture macros list end*
G04 #@! TA.AperFunction,ComponentPad*
%ADD10C,2.300000*%
G04 #@! TD*
G04 #@! TA.AperFunction,ComponentPad*
%ADD11O,2.700000X1.700000*%
G04 #@! TD*
G04 #@! TA.AperFunction,SMDPad,CuDef*
%ADD12RoundRect,0.225000X0.375000X-0.225000X0.375000X0.225000X-0.375000X0.225000X-0.375000X-0.225000X0*%
G04 #@! TD*
G04 #@! TA.AperFunction,ComponentPad*
%ADD13C,1.524000*%
G04 #@! TD*
G04 #@! TA.AperFunction,SMDPad,CuDef*
%ADD14RoundRect,0.114865X-0.735135X1.635135X-0.735135X-1.635135X0.735135X-1.635135X0.735135X1.635135X0*%
G04 #@! TD*
G04 #@! TA.AperFunction,SMDPad,CuDef*
%ADD15RoundRect,0.114865X1.635135X0.735135X-1.635135X0.735135X-1.635135X-0.735135X1.635135X-0.735135X0*%
G04 #@! TD*
G04 #@! TA.AperFunction,ViaPad*
%ADD16C,0.800000*%
G04 #@! TD*
G04 #@! TA.AperFunction,Conductor*
%ADD17C,0.250000*%
G04 #@! TD*
G04 APERTURE END LIST*
D10*
X71800000Y-118206250D03*
X78800000Y-119256250D03*
X328612500Y-168116250D03*
X334962500Y-165576250D03*
X90850000Y-175356250D03*
X97850000Y-176406250D03*
X139065000Y-130016250D03*
X145415000Y-127476250D03*
X224790000Y-149066250D03*
X231140000Y-146526250D03*
X214675000Y-137256250D03*
X221675000Y-138306250D03*
X52750000Y-118206250D03*
X59750000Y-119256250D03*
X91440000Y-168116250D03*
X97790000Y-165576250D03*
X286702500Y-149066250D03*
X293052500Y-146526250D03*
X290875000Y-137256250D03*
X297875000Y-138306250D03*
X195625000Y-137256250D03*
X202625000Y-138306250D03*
X119425000Y-137256250D03*
X126425000Y-138306250D03*
D11*
X45243750Y-123190000D03*
X45243750Y-120650000D03*
X45243750Y-118110000D03*
X45243750Y-115570000D03*
X45243750Y-113030000D03*
D10*
X328612500Y-110966250D03*
X334962500Y-108426250D03*
X257537500Y-175356250D03*
X264537500Y-176406250D03*
X129540000Y-110966250D03*
X135890000Y-108426250D03*
X366122500Y-175356250D03*
X373122500Y-176406250D03*
X286702500Y-110966250D03*
X293052500Y-108426250D03*
X272415000Y-130016250D03*
X278765000Y-127476250D03*
X148590000Y-110966250D03*
X154940000Y-108426250D03*
X328022500Y-118206250D03*
X335022500Y-119256250D03*
X328022500Y-175356250D03*
X335022500Y-176406250D03*
X109900000Y-118206250D03*
X116900000Y-119256250D03*
X186100000Y-156306250D03*
X193100000Y-157356250D03*
X72390000Y-110966250D03*
X78740000Y-108426250D03*
X328612500Y-130016250D03*
X334962500Y-127476250D03*
X366122500Y-137256250D03*
X373122500Y-138306250D03*
D11*
X382181250Y-113030000D03*
X382181250Y-115570000D03*
X382181250Y-118110000D03*
X382181250Y-120650000D03*
X382181250Y-123190000D03*
D10*
X347072500Y-118206250D03*
X354072500Y-119256250D03*
X186690000Y-110966250D03*
X193040000Y-108426250D03*
X62275000Y-156306250D03*
X69275000Y-157356250D03*
X347072500Y-137256250D03*
X354072500Y-138306250D03*
X62865000Y-149066250D03*
X69215000Y-146526250D03*
D11*
X320675000Y-123190000D03*
X320675000Y-120650000D03*
X320675000Y-118110000D03*
X320675000Y-115570000D03*
X320675000Y-113030000D03*
D10*
X90850000Y-156306250D03*
X97850000Y-157356250D03*
X252775000Y-137256250D03*
X259775000Y-138306250D03*
X138475000Y-137256250D03*
X145475000Y-138306250D03*
X91440000Y-110966250D03*
X97790000Y-108426250D03*
X148000000Y-156306250D03*
X155000000Y-157356250D03*
X366712500Y-149066250D03*
X373062500Y-146526250D03*
X128950000Y-118206250D03*
X135950000Y-119256250D03*
X100965000Y-130016250D03*
X107315000Y-127476250D03*
X81915000Y-130016250D03*
X88265000Y-127476250D03*
X262300000Y-118206250D03*
X269300000Y-119256250D03*
X236106250Y-175356250D03*
X243106250Y-176406250D03*
X186100000Y-118206250D03*
X193100000Y-119256250D03*
X177165000Y-130016250D03*
X183515000Y-127476250D03*
X196215000Y-130016250D03*
X202565000Y-127476250D03*
X109900000Y-156306250D03*
X116900000Y-157356250D03*
X215265000Y-130016250D03*
X221615000Y-127476250D03*
X91440000Y-149066250D03*
X97790000Y-146526250D03*
X148000000Y-118206250D03*
X155000000Y-119256250D03*
X243250000Y-156306250D03*
X250250000Y-157356250D03*
X205150000Y-118206250D03*
X212150000Y-119256250D03*
X224200000Y-156306250D03*
X231200000Y-157356250D03*
D11*
X306775000Y-166370000D03*
X306775000Y-168910000D03*
X306775000Y-171450000D03*
D10*
X167640000Y-110966250D03*
X173990000Y-108426250D03*
X100375000Y-137256250D03*
X107375000Y-138306250D03*
X262300000Y-156306250D03*
X269300000Y-157356250D03*
X205740000Y-110966250D03*
X212090000Y-108426250D03*
X110490000Y-110966250D03*
X116840000Y-108426250D03*
X167640000Y-149066250D03*
X173990000Y-146526250D03*
X347072500Y-156306250D03*
X354072500Y-157356250D03*
X67627500Y-168116250D03*
X73977500Y-165576250D03*
X128950000Y-156306250D03*
X135950000Y-157356250D03*
X129540000Y-149066250D03*
X135890000Y-146526250D03*
X347662500Y-110966250D03*
X354012500Y-108426250D03*
X347662500Y-168116250D03*
X354012500Y-165576250D03*
X53340000Y-110966250D03*
X59690000Y-108426250D03*
X167050000Y-156306250D03*
X174050000Y-157356250D03*
X148590000Y-149066250D03*
X154940000Y-146526250D03*
X234315000Y-130016250D03*
X240665000Y-127476250D03*
X205150000Y-156306250D03*
X212150000Y-157356250D03*
X366122500Y-118206250D03*
X373122500Y-119256250D03*
X262890000Y-110966250D03*
X269240000Y-108426250D03*
X347662500Y-149066250D03*
X354012500Y-146526250D03*
X236696250Y-168116250D03*
X243046250Y-165576250D03*
D11*
X306775000Y-113030000D03*
X306775000Y-115570000D03*
X306775000Y-118110000D03*
X306775000Y-120650000D03*
X306775000Y-123190000D03*
D10*
X243250000Y-118206250D03*
X250250000Y-119256250D03*
X164668750Y-175356250D03*
X171668750Y-176406250D03*
X90850000Y-118206250D03*
X97850000Y-119256250D03*
X347072500Y-175356250D03*
X354072500Y-176406250D03*
X328612500Y-149066250D03*
X334962500Y-146526250D03*
X328022500Y-137256250D03*
X335022500Y-138306250D03*
X286112500Y-156306250D03*
X293112500Y-157356250D03*
D11*
X382181250Y-166370000D03*
X382181250Y-168910000D03*
X382181250Y-171450000D03*
D10*
X262890000Y-149066250D03*
X269240000Y-146526250D03*
X278968750Y-175356250D03*
X285968750Y-176406250D03*
X291465000Y-130016250D03*
X297815000Y-127476250D03*
X366122500Y-156306250D03*
X373122500Y-157356250D03*
X328022500Y-156306250D03*
X335022500Y-157356250D03*
X67037500Y-175356250D03*
X74037500Y-176406250D03*
X57512500Y-137256250D03*
X64512500Y-138306250D03*
X279558750Y-168116250D03*
X285908750Y-165576250D03*
X176575000Y-137256250D03*
X183575000Y-138306250D03*
X286112500Y-118206250D03*
X293112500Y-119256250D03*
X258127500Y-168116250D03*
X264477500Y-165576250D03*
X347662500Y-130016250D03*
X354012500Y-127476250D03*
X58102500Y-130016250D03*
X64452500Y-127476250D03*
X253365000Y-130016250D03*
X259715000Y-127476250D03*
X110490000Y-149066250D03*
X116840000Y-146526250D03*
X158115000Y-130016250D03*
X164465000Y-127476250D03*
X205740000Y-149066250D03*
X212090000Y-146526250D03*
X165258750Y-168116250D03*
X171608750Y-165576250D03*
D11*
X45243750Y-171450000D03*
X45243750Y-168910000D03*
X45243750Y-166370000D03*
D10*
X366712500Y-110966250D03*
X373062500Y-108426250D03*
X243840000Y-149066250D03*
X250190000Y-146526250D03*
X167050000Y-118206250D03*
X174050000Y-119256250D03*
X186690000Y-149066250D03*
X193040000Y-146526250D03*
X366712500Y-168116250D03*
X373062500Y-165576250D03*
X243840000Y-110966250D03*
X250190000Y-108426250D03*
X224790000Y-110966250D03*
X231140000Y-108426250D03*
X224200000Y-118206250D03*
X231200000Y-119256250D03*
X157525000Y-137256250D03*
X164525000Y-138306250D03*
X233725000Y-137256250D03*
X240725000Y-138306250D03*
D11*
X320675000Y-171450000D03*
X320675000Y-168910000D03*
X320675000Y-166370000D03*
D10*
X120015000Y-130016250D03*
X126365000Y-127476250D03*
X366712500Y-130016250D03*
X373062500Y-127476250D03*
X81325000Y-137256250D03*
X88325000Y-138306250D03*
X271825000Y-137256250D03*
X278825000Y-138306250D03*
D12*
X378618750Y-115156250D03*
X378618750Y-111856250D03*
X151606250Y-135000000D03*
X151606250Y-131700000D03*
X340518750Y-134206250D03*
X340518750Y-130906250D03*
X359568750Y-172306250D03*
X359568750Y-169006250D03*
X378618750Y-134206250D03*
X378618750Y-130906250D03*
X237353750Y-115927500D03*
X237353750Y-112627500D03*
X161131250Y-154050000D03*
X161131250Y-150750000D03*
X237331250Y-154027500D03*
X237331250Y-150727500D03*
X132556250Y-135000000D03*
X132556250Y-131700000D03*
X378618750Y-153256250D03*
X378618750Y-149956250D03*
X94433750Y-134977500D03*
X94433750Y-131677500D03*
X284933750Y-134977500D03*
X284933750Y-131677500D03*
X189706250Y-135000000D03*
X189706250Y-131700000D03*
X65881250Y-116743750D03*
X65881250Y-113443750D03*
X256381250Y-154050000D03*
X256381250Y-150750000D03*
X265883750Y-134977500D03*
X265883750Y-131677500D03*
X123031250Y-115950000D03*
X123031250Y-112650000D03*
X180181250Y-115950000D03*
X180181250Y-112650000D03*
X359568750Y-134206250D03*
X359568750Y-130906250D03*
D13*
X190500000Y-180086000D03*
D14*
X190500000Y-181036000D03*
D13*
X193040000Y-180086000D03*
D14*
X193040000Y-181036000D03*
D13*
X195580000Y-180086000D03*
D14*
X195580000Y-181036000D03*
D13*
X198120000Y-180086000D03*
D14*
X198120000Y-181036000D03*
D13*
X200660000Y-180086000D03*
D14*
X200660000Y-181036000D03*
D13*
X203200000Y-180086000D03*
D14*
X203200000Y-181036000D03*
D13*
X205740000Y-180086000D03*
D14*
X205740000Y-181036000D03*
D13*
X208280000Y-180086000D03*
D14*
X208280000Y-181036000D03*
D13*
X210820000Y-180086000D03*
D14*
X210820000Y-181036000D03*
D15*
X211760000Y-177546000D03*
D13*
X210820000Y-177546000D03*
D15*
X211760000Y-175006000D03*
D13*
X210820000Y-175006000D03*
D15*
X211760000Y-172466000D03*
D13*
X210820000Y-172466000D03*
X210820000Y-169926000D03*
D15*
X211760000Y-169936000D03*
X211760000Y-167386000D03*
D13*
X210820000Y-167386000D03*
D14*
X210820000Y-163896000D03*
D13*
X210820000Y-164846000D03*
D14*
X208280000Y-163896000D03*
D13*
X208280000Y-164846000D03*
D14*
X205740000Y-163896000D03*
D13*
X205740000Y-164846000D03*
D14*
X203200000Y-163896000D03*
D13*
X203200000Y-164846000D03*
D14*
X200660000Y-163896000D03*
D13*
X200660000Y-164846000D03*
D14*
X198120000Y-163896000D03*
D13*
X198120000Y-164846000D03*
D14*
X195580000Y-163896000D03*
D13*
X195580000Y-164846000D03*
D14*
X193040000Y-163896000D03*
D13*
X193040000Y-164846000D03*
D14*
X190500000Y-163896000D03*
D13*
X190500000Y-164846000D03*
D12*
X256381250Y-115950000D03*
X256381250Y-112650000D03*
X340518750Y-115156250D03*
X340518750Y-111856250D03*
X298196000Y-155320000D03*
X298196000Y-152020000D03*
X170656250Y-134977500D03*
X170656250Y-131677500D03*
X84931250Y-154027500D03*
X84931250Y-150727500D03*
X84137500Y-115927500D03*
X84137500Y-112627500D03*
X199231250Y-115905000D03*
X199231250Y-112605000D03*
X113506250Y-135000000D03*
X113506250Y-131700000D03*
X142081250Y-154027500D03*
X142081250Y-150727500D03*
X161131250Y-115950000D03*
X161131250Y-112650000D03*
X123031250Y-154027500D03*
X123031250Y-150727500D03*
X340518750Y-172306250D03*
X340518750Y-169006250D03*
X80168750Y-173100000D03*
X80168750Y-169800000D03*
X199208750Y-154027500D03*
X199208750Y-150727500D03*
X275408750Y-154027500D03*
X275408750Y-150727500D03*
X270668750Y-173077500D03*
X270668750Y-169777500D03*
X103981250Y-154027500D03*
X103981250Y-150727500D03*
X298450000Y-115950000D03*
X298450000Y-112650000D03*
X301498000Y-138810000D03*
X301498000Y-135510000D03*
X275431250Y-115950000D03*
X275431250Y-112650000D03*
X142121250Y-115950000D03*
X142121250Y-112650000D03*
X359568750Y-115156250D03*
X359568750Y-111856250D03*
X227783750Y-134977500D03*
X227783750Y-131677500D03*
X103981250Y-115927500D03*
X103981250Y-112627500D03*
X218258750Y-154027500D03*
X218258750Y-150727500D03*
X208733750Y-135000000D03*
X208733750Y-131700000D03*
X378618750Y-172306250D03*
X378618750Y-169006250D03*
X359568750Y-153256250D03*
X359568750Y-149956250D03*
X218258750Y-115927500D03*
X218258750Y-112627500D03*
X180181250Y-154050000D03*
X180181250Y-150750000D03*
X340518750Y-152462500D03*
X340518750Y-149162500D03*
X75406250Y-135000000D03*
X75406250Y-131700000D03*
X108721250Y-173077500D03*
X108721250Y-169777500D03*
X251618750Y-173100000D03*
X251618750Y-169800000D03*
X246856250Y-135000000D03*
X246856250Y-131700000D03*
X178508750Y-173077500D03*
X178508750Y-169777500D03*
X294481250Y-173077500D03*
X294481250Y-169777500D03*
D16*
X178308000Y-161036000D03*
X166624000Y-123031250D03*
X182626000Y-161036000D03*
X176212500Y-142081250D03*
X367506250Y-162718750D03*
X334168750Y-162718750D03*
X221350000Y-181102000D03*
X222030551Y-181834704D03*
X342900000Y-176212500D03*
X222691675Y-182584985D03*
D17*
X167050000Y-166325000D02*
X165258750Y-168116250D01*
X167050000Y-156306250D02*
X167050000Y-166325000D01*
X84137500Y-120650000D02*
X86518750Y-123031250D01*
X237353750Y-119878750D02*
X240506250Y-123031250D01*
X161131250Y-115950000D02*
X161131250Y-120650000D01*
X73025000Y-123031250D02*
X86518750Y-123031250D01*
X202406250Y-123031250D02*
X221456250Y-123031250D01*
X106362500Y-123031250D02*
X125412500Y-123031250D01*
X320675000Y-113030000D02*
X328376250Y-120731250D01*
X61893750Y-120731250D02*
X65881250Y-116743750D01*
X86518750Y-123031250D02*
X106362500Y-123031250D01*
X378618750Y-115887500D02*
X378618750Y-115156250D01*
X142121250Y-120690000D02*
X144462500Y-123031250D01*
X346043750Y-120681250D02*
X346093750Y-120731250D01*
X340518750Y-115156250D02*
X346043750Y-120681250D01*
X240506250Y-123031250D02*
X258762500Y-123031250D01*
X125412500Y-123031250D02*
X144462500Y-123031250D01*
X221456250Y-123031250D02*
X240506250Y-123031250D01*
X45243750Y-113030000D02*
X52945000Y-120731250D01*
X359568750Y-115156250D02*
X359568750Y-119143750D01*
X84137500Y-115927500D02*
X84137500Y-120650000D01*
X199231250Y-119856250D02*
X202406250Y-123031250D01*
X275431250Y-115950000D02*
X275431250Y-120650000D01*
X180181250Y-120650000D02*
X182562500Y-123031250D01*
X218258750Y-115927500D02*
X218258750Y-119833750D01*
X328376250Y-120731250D02*
X345993750Y-120731250D01*
X103981250Y-120650000D02*
X106362500Y-123031250D01*
X380745000Y-113030000D02*
X378618750Y-115156250D01*
X123031250Y-120650000D02*
X125412500Y-123031250D01*
X237353750Y-115927500D02*
X237353750Y-119878750D01*
X304895250Y-113030000D02*
X294894000Y-123031250D01*
X256381250Y-115950000D02*
X256381250Y-120650000D01*
X256381250Y-120650000D02*
X258762500Y-123031250D01*
X190500000Y-175768000D02*
X190246000Y-175514000D01*
X65881250Y-116743750D02*
X65881250Y-117475000D01*
X373775000Y-120731250D02*
X378618750Y-115887500D01*
X294894000Y-123031250D02*
X277812500Y-123031250D01*
X275431250Y-120650000D02*
X277812500Y-123031250D01*
X346093750Y-120731250D02*
X357981250Y-120731250D01*
X298450000Y-115950000D02*
X298450000Y-119475250D01*
X103981250Y-115927500D02*
X103981250Y-120650000D01*
X199231250Y-115905000D02*
X199231250Y-119856250D01*
X65881250Y-117475000D02*
X71437500Y-123031250D01*
X190246000Y-175514000D02*
X178308000Y-163576000D01*
X52945000Y-120731250D02*
X61893750Y-120731250D01*
X123031250Y-115950000D02*
X123031250Y-120650000D01*
X306775000Y-113030000D02*
X304895250Y-113030000D01*
X180181250Y-115950000D02*
X180181250Y-120650000D01*
X166624000Y-123031250D02*
X182562500Y-123031250D01*
X345993750Y-120731250D02*
X346043750Y-120681250D01*
X218258750Y-119833750D02*
X221456250Y-123031250D01*
X178308000Y-163576000D02*
X178308000Y-161036000D01*
X182562500Y-123031250D02*
X202406250Y-123031250D01*
X382181250Y-113030000D02*
X380745000Y-113030000D01*
X258762500Y-123031250D02*
X277812500Y-123031250D01*
X359568750Y-119143750D02*
X357981250Y-120731250D01*
X71437500Y-123031250D02*
X73025000Y-123031250D01*
X142121250Y-115950000D02*
X142121250Y-120690000D01*
X163512500Y-123031250D02*
X166624000Y-123031250D01*
X161131250Y-120650000D02*
X163512500Y-123031250D01*
X190500000Y-180086000D02*
X190500000Y-175768000D01*
X144462500Y-123031250D02*
X163512500Y-123031250D01*
X357981250Y-120731250D02*
X373775000Y-120731250D01*
X45243750Y-115570000D02*
X52070000Y-122396250D01*
X52070000Y-129527434D02*
X62496566Y-139954000D01*
X215106250Y-142081250D02*
X233362500Y-142081250D01*
X208733750Y-135000000D02*
X208733750Y-135708750D01*
X373775000Y-139781250D02*
X378618750Y-134937500D01*
X189706250Y-136525000D02*
X195262500Y-142081250D01*
X113506250Y-136525000D02*
X119062500Y-142081250D01*
X119062500Y-142081250D02*
X138906250Y-142081250D01*
X151606250Y-136525000D02*
X157162500Y-142081250D01*
X328461534Y-139781250D02*
X346156250Y-139781250D01*
X182626000Y-165354000D02*
X182626000Y-161036000D01*
X382181250Y-115570000D02*
X379543750Y-118207500D01*
X113506250Y-135000000D02*
X113506250Y-136525000D01*
X176212500Y-142081250D02*
X195262500Y-142081250D01*
X192659000Y-175387000D02*
X182626000Y-165354000D01*
X284933750Y-136502500D02*
X290512500Y-142081250D01*
X132556250Y-135731250D02*
X138906250Y-142081250D01*
X379543750Y-118207500D02*
X379543750Y-133281250D01*
X346093750Y-139781250D02*
X346156250Y-139781250D01*
X346156250Y-139781250D02*
X357981250Y-139781250D01*
X170656250Y-136525000D02*
X176212500Y-142081250D01*
X340518750Y-134206250D02*
X346093750Y-139781250D01*
X246856250Y-135731250D02*
X253206250Y-142081250D01*
X302768000Y-137540000D02*
X298226750Y-142081250D01*
X284933750Y-134977500D02*
X284933750Y-136502500D01*
X326116600Y-137436316D02*
X328461534Y-139781250D01*
X62496566Y-139954000D02*
X70452250Y-139954000D01*
X265883750Y-135708750D02*
X272256250Y-142081250D01*
X359568750Y-138193750D02*
X357981250Y-139781250D01*
X52070000Y-122396250D02*
X52070000Y-129527434D01*
X227783750Y-134977500D02*
X227783750Y-136502500D01*
X100806250Y-142081250D02*
X119062500Y-142081250D01*
X208733750Y-135708750D02*
X215106250Y-142081250D01*
X246856250Y-135000000D02*
X246856250Y-135731250D01*
X70452250Y-139954000D02*
X75406250Y-135000000D01*
X157162500Y-142081250D02*
X176212500Y-142081250D01*
X265883750Y-134977500D02*
X265883750Y-135708750D01*
X298226750Y-142081250D02*
X290512500Y-142081250D01*
X170656250Y-134977500D02*
X170656250Y-136525000D01*
X195262500Y-142081250D02*
X215106250Y-142081250D01*
X326116600Y-121011600D02*
X326116600Y-137436316D01*
X81756250Y-142081250D02*
X82550000Y-142081250D01*
X357981250Y-139781250D02*
X373775000Y-139781250D01*
X82550000Y-142081250D02*
X100806250Y-142081250D01*
X189706250Y-135000000D02*
X189706250Y-136525000D01*
X132556250Y-135000000D02*
X132556250Y-135731250D01*
X359568750Y-134206250D02*
X359568750Y-138193750D01*
X227783750Y-136502500D02*
X233362500Y-142081250D01*
X272256250Y-142081250D02*
X290512500Y-142081250D01*
X253206250Y-142081250D02*
X272256250Y-142081250D01*
X94433750Y-134977500D02*
X94433750Y-135708750D01*
X75406250Y-135000000D02*
X75406250Y-135731250D01*
X379543750Y-133281250D02*
X378618750Y-134206250D01*
X302768000Y-119577000D02*
X302768000Y-137540000D01*
X233362500Y-142081250D02*
X253206250Y-142081250D01*
X193040000Y-180086000D02*
X193040000Y-175768000D01*
X320675000Y-115570000D02*
X326116600Y-121011600D01*
X138906250Y-142081250D02*
X157162500Y-142081250D01*
X151606250Y-135000000D02*
X151606250Y-136525000D01*
X94433750Y-135708750D02*
X100806250Y-142081250D01*
X75406250Y-135731250D02*
X81756250Y-142081250D01*
X193040000Y-175768000D02*
X192659000Y-175387000D01*
X378618750Y-134937500D02*
X378618750Y-134206250D01*
X306775000Y-115570000D02*
X302768000Y-119577000D01*
X185737500Y-161131250D02*
X187102750Y-159766000D01*
X328461534Y-158831250D02*
X325666600Y-156036316D01*
X185737500Y-161131250D02*
X185737500Y-165925500D01*
X359568750Y-153256250D02*
X359568750Y-157243750D01*
X169862500Y-156368750D02*
X173037500Y-159543750D01*
X292384750Y-161131250D02*
X303276000Y-150240000D01*
X168275000Y-153987500D02*
X169862500Y-155575000D01*
X177006250Y-159543750D02*
X180578125Y-155971875D01*
X256381250Y-155575000D02*
X261937500Y-161131250D01*
X110331250Y-161131250D02*
X129381250Y-161131250D01*
X378618750Y-153987500D02*
X378618750Y-153256250D01*
X173037500Y-159543750D02*
X177006250Y-159543750D01*
X155575000Y-161131250D02*
X161131250Y-155575000D01*
X180181250Y-155575000D02*
X180578125Y-155971875D01*
X142081250Y-155575000D02*
X147637500Y-161131250D01*
X347662500Y-158831250D02*
X328461534Y-158831250D01*
X347662500Y-158831250D02*
X357981250Y-158831250D01*
X256381250Y-154050000D02*
X256381250Y-155575000D01*
X194945000Y-175133000D02*
X186690000Y-166878000D01*
X340518750Y-152462500D02*
X346887500Y-158831250D01*
X48514000Y-123920250D02*
X48514000Y-146304000D01*
X130125000Y-161131250D02*
X147637500Y-161131250D01*
X195580000Y-175768000D02*
X194945000Y-175133000D01*
X379993750Y-151881250D02*
X378618750Y-153256250D01*
X84931250Y-154781250D02*
X91281250Y-161131250D01*
X195580000Y-180086000D02*
X195580000Y-175768000D01*
X275408750Y-155552500D02*
X280987500Y-161131250D01*
X180181250Y-154050000D02*
X180181250Y-155575000D01*
X103981250Y-154027500D02*
X103981250Y-154781250D01*
X199208750Y-154187250D02*
X204787500Y-159766000D01*
X218258750Y-154027500D02*
X218258750Y-154758750D01*
X218258750Y-154758750D02*
X224631250Y-161131250D01*
X147637500Y-161131250D02*
X155575000Y-161131250D01*
X48514000Y-146304000D02*
X64928750Y-162718750D01*
X84931250Y-154027500D02*
X84931250Y-154781250D01*
X199208750Y-154027500D02*
X199208750Y-154187250D01*
X303276000Y-150240000D02*
X303276000Y-124149000D01*
X373775000Y-158831250D02*
X378618750Y-153987500D01*
X186690000Y-166878000D02*
X186182000Y-166370000D01*
X320675000Y-120777000D02*
X320675000Y-120650000D01*
X325666600Y-156036316D02*
X325666600Y-125768600D01*
X346887500Y-158831250D02*
X347662500Y-158831250D01*
X107156250Y-161131250D02*
X130125000Y-161131250D01*
X45243750Y-120650000D02*
X48514000Y-123920250D01*
X379993750Y-120297500D02*
X379993750Y-151881250D01*
X89693750Y-162718750D02*
X91281250Y-161131250D01*
X64928750Y-162718750D02*
X89693750Y-162718750D01*
X185737500Y-165925500D02*
X186690000Y-166878000D01*
X359568750Y-157243750D02*
X357981250Y-158831250D01*
X303276000Y-124149000D02*
X306775000Y-120650000D01*
X129381250Y-161131250D02*
X130125000Y-161131250D01*
X180578125Y-155971875D02*
X185737500Y-161131250D01*
X242887500Y-161131250D02*
X261937500Y-161131250D01*
X280987500Y-161131250D02*
X292384750Y-161131250D01*
X325666600Y-125768600D02*
X320675000Y-120777000D01*
X162718750Y-153987500D02*
X168275000Y-153987500D01*
X161131250Y-154050000D02*
X161131250Y-155575000D01*
X261937500Y-161131250D02*
X280987500Y-161131250D01*
X123031250Y-154781250D02*
X129381250Y-161131250D01*
X224631250Y-161131250D02*
X242887500Y-161131250D01*
X123031250Y-154027500D02*
X123031250Y-154781250D01*
X103981250Y-154781250D02*
X110331250Y-161131250D01*
X187102750Y-159766000D02*
X204787500Y-159766000D01*
X237331250Y-154027500D02*
X237331250Y-155575000D01*
X142081250Y-154027500D02*
X142081250Y-155575000D01*
X275408750Y-154027500D02*
X275408750Y-155552500D01*
X161131250Y-155575000D02*
X162718750Y-153987500D01*
X223266000Y-159766000D02*
X224631250Y-161131250D01*
X237331250Y-155575000D02*
X242887500Y-161131250D01*
X357981250Y-158831250D02*
X373775000Y-158831250D01*
X204787500Y-159766000D02*
X223266000Y-159766000D01*
X169862500Y-155575000D02*
X169862500Y-156368750D01*
X382181250Y-118110000D02*
X379993750Y-120297500D01*
X91281250Y-161131250D02*
X110331250Y-161131250D01*
X380443750Y-122387500D02*
X380443750Y-170011104D01*
X258762500Y-182562500D02*
X277812500Y-182562500D01*
X251618750Y-173100000D02*
X251618750Y-175418750D01*
X80168750Y-173831250D02*
X86518750Y-180181250D01*
X359568750Y-176293750D02*
X357981250Y-177881250D01*
X80168750Y-173100000D02*
X80168750Y-173831250D01*
X356532500Y-163651250D02*
X332645138Y-163651250D01*
X320675000Y-123317000D02*
X320675000Y-123190000D01*
X359568750Y-172306250D02*
X359568750Y-176293750D01*
X325216600Y-156222712D02*
X325216600Y-127858600D01*
X46990000Y-157480000D02*
X68553750Y-179043750D01*
X243332000Y-182626000D02*
X242062000Y-181356000D01*
X258699000Y-182626000D02*
X243332000Y-182626000D01*
X242062000Y-181356000D02*
X238252000Y-181356000D01*
X362743750Y-177881250D02*
X373733466Y-177881250D01*
X178508750Y-173077500D02*
X178508750Y-173746250D01*
X340518750Y-172306250D02*
X346093750Y-177881250D01*
X80168750Y-175418750D02*
X80168750Y-173100000D01*
X198120000Y-181036000D02*
X198120000Y-182880000D01*
X236220000Y-183388000D02*
X198628000Y-183388000D01*
X332645138Y-163651250D02*
X325216600Y-156222712D01*
X111753750Y-181610000D02*
X169976250Y-181610000D01*
X76543750Y-179043750D02*
X80168750Y-175418750D01*
X378618750Y-172995966D02*
X378618750Y-172306250D01*
X45243750Y-123190000D02*
X46990000Y-124936250D01*
X101617500Y-180181250D02*
X108721250Y-173077500D01*
X303726000Y-126239000D02*
X303726000Y-163832750D01*
X325216600Y-127858600D02*
X320675000Y-123317000D01*
X108721250Y-173077500D02*
X108721250Y-178577500D01*
X373733466Y-177881250D02*
X378618750Y-172995966D01*
X188150500Y-183388000D02*
X198628000Y-183388000D01*
X357981250Y-177881250D02*
X362743750Y-177881250D01*
X178508750Y-173746250D02*
X188150500Y-183388000D01*
X270668750Y-173077500D02*
X270668750Y-175418750D01*
X277812500Y-182562500D02*
X284996250Y-182562500D01*
X169976250Y-181610000D02*
X178508750Y-173077500D01*
X258762500Y-182562500D02*
X258699000Y-182626000D01*
X86518750Y-180181250D02*
X101617500Y-180181250D01*
X362743750Y-169862500D02*
X356532500Y-163651250D01*
X380443750Y-170011104D02*
X378618750Y-171836104D01*
X251618750Y-175418750D02*
X258762500Y-182562500D01*
X378618750Y-171836104D02*
X378618750Y-172306250D01*
X362743750Y-177881250D02*
X362743750Y-169862500D01*
X238252000Y-181356000D02*
X236220000Y-183388000D01*
X46990000Y-124936250D02*
X46990000Y-157480000D01*
X284996250Y-182562500D02*
X294481250Y-173077500D01*
X346093750Y-177881250D02*
X357981250Y-177881250D01*
X306775000Y-123190000D02*
X303726000Y-126239000D01*
X270668750Y-175418750D02*
X277812500Y-182562500D01*
X108721250Y-178577500D02*
X111753750Y-181610000D01*
X68553750Y-179043750D02*
X76543750Y-179043750D01*
X382181250Y-120650000D02*
X380443750Y-122387500D01*
X198120000Y-182880000D02*
X198628000Y-183388000D01*
X303726000Y-163832750D02*
X294481250Y-173077500D01*
X336172500Y-109636250D02*
X334962500Y-108426250D01*
X334962500Y-108426250D02*
X338392500Y-111856250D01*
X336172500Y-118106250D02*
X336172500Y-109636250D01*
X335022500Y-119256250D02*
X336172500Y-118106250D01*
X338392500Y-111856250D02*
X340518750Y-111856250D01*
X337598750Y-149162500D02*
X340518750Y-149162500D01*
X334962500Y-146526250D02*
X336276600Y-147840350D01*
X336276600Y-147840350D02*
X336276600Y-156102150D01*
X336276600Y-156102150D02*
X335022500Y-157356250D01*
X334962500Y-146526250D02*
X337598750Y-149162500D01*
X354012500Y-108426250D02*
X357442500Y-111856250D01*
X354012500Y-108426250D02*
X355162500Y-109576250D01*
X355162500Y-109576250D02*
X355162500Y-118166250D01*
X357442500Y-111856250D02*
X359568750Y-111856250D01*
X355162500Y-118166250D02*
X354072500Y-119256250D01*
X355162500Y-156266250D02*
X354072500Y-157356250D01*
X355162500Y-147676250D02*
X355162500Y-156266250D01*
X354012500Y-146526250D02*
X357442500Y-149956250D01*
X357442500Y-149956250D02*
X359568750Y-149956250D01*
X354012500Y-146526250D02*
X355162500Y-147676250D01*
X374212500Y-118166250D02*
X373122500Y-119256250D01*
X374212500Y-109576250D02*
X374212500Y-118166250D01*
X376492500Y-111856250D02*
X378618750Y-111856250D01*
X373062500Y-108426250D02*
X376492500Y-111856250D01*
X373062500Y-108426250D02*
X374212500Y-109576250D01*
X373062500Y-146526250D02*
X376492500Y-149956250D01*
X374212500Y-156266250D02*
X373122500Y-157356250D01*
X374212500Y-147676250D02*
X374212500Y-156266250D01*
X376492500Y-149956250D02*
X378618750Y-149956250D01*
X373062500Y-146526250D02*
X374212500Y-147676250D01*
X376492500Y-169006250D02*
X378618750Y-169006250D01*
X374212500Y-166726250D02*
X374212500Y-175316250D01*
X373062500Y-165576250D02*
X376492500Y-169006250D01*
X373062500Y-165576250D02*
X374212500Y-166726250D01*
X374212500Y-175316250D02*
X373122500Y-176406250D01*
X298196000Y-152020000D02*
X298196000Y-152272750D01*
X298196000Y-151669750D02*
X298196000Y-152020000D01*
X298196000Y-152272750D02*
X293112500Y-157356250D01*
X293052500Y-146526250D02*
X298196000Y-151669750D01*
X336112500Y-128626250D02*
X336112500Y-137216250D01*
X334962500Y-127476250D02*
X338392500Y-130906250D01*
X334962500Y-127476250D02*
X336112500Y-128626250D01*
X336112500Y-137216250D02*
X335022500Y-138306250D01*
X338392500Y-130906250D02*
X340518750Y-130906250D01*
X334962500Y-165576250D02*
X336112500Y-166726250D01*
X336112500Y-166726250D02*
X336112500Y-175316250D01*
X336112500Y-175316250D02*
X335022500Y-176406250D01*
X338392500Y-169006250D02*
X340518750Y-169006250D01*
X334962500Y-165576250D02*
X338392500Y-169006250D01*
X355162500Y-128626250D02*
X355162500Y-137216250D01*
X354012500Y-127476250D02*
X357442500Y-130906250D01*
X354012500Y-127476250D02*
X355162500Y-128626250D01*
X355162500Y-137216250D02*
X354072500Y-138306250D01*
X357442500Y-130906250D02*
X359568750Y-130906250D01*
X354012500Y-165576250D02*
X357442500Y-169006250D01*
X355162500Y-166726250D02*
X355162500Y-175316250D01*
X354012500Y-165576250D02*
X355162500Y-166726250D01*
X355162500Y-175316250D02*
X354072500Y-176406250D01*
X357442500Y-169006250D02*
X359568750Y-169006250D01*
X374212500Y-137216250D02*
X373122500Y-138306250D01*
X373062500Y-127476250D02*
X376492500Y-130906250D01*
X374212500Y-128626250D02*
X374212500Y-137216250D01*
X376492500Y-130906250D02*
X378618750Y-130906250D01*
X373062500Y-127476250D02*
X374212500Y-128626250D01*
X64707500Y-113443750D02*
X65881250Y-113443750D01*
X59690000Y-108426250D02*
X64707500Y-113443750D01*
X65562500Y-113443750D02*
X65881250Y-113443750D01*
X59750000Y-119256250D02*
X65562500Y-113443750D01*
X64452500Y-127476250D02*
X68676250Y-131700000D01*
X64512500Y-138306250D02*
X68676250Y-134142500D01*
X68676250Y-134142500D02*
X68676250Y-131700000D01*
X68676250Y-131700000D02*
X75406250Y-131700000D01*
X73416250Y-150727500D02*
X84931250Y-150727500D01*
X69215000Y-146526250D02*
X73416250Y-150727500D01*
X73416250Y-153215000D02*
X73416250Y-150727500D01*
X69275000Y-157356250D02*
X73416250Y-153215000D01*
X74037500Y-176406250D02*
X80168750Y-170275000D01*
X78201250Y-169800000D02*
X80168750Y-169800000D01*
X80168750Y-170275000D02*
X80168750Y-169800000D01*
X73977500Y-165576250D02*
X78201250Y-169800000D01*
X82941250Y-112627500D02*
X84137500Y-112627500D01*
X78740000Y-108426250D02*
X82941250Y-112627500D01*
X78800000Y-119256250D02*
X84137500Y-113918750D01*
X84137500Y-113918750D02*
X84137500Y-112627500D01*
X94433750Y-132197500D02*
X94433750Y-131677500D01*
X88265000Y-127476250D02*
X90232500Y-127476250D01*
X88325000Y-138306250D02*
X94433750Y-132197500D01*
X90232500Y-127476250D02*
X94433750Y-131677500D01*
X99780000Y-146526250D02*
X103981250Y-150727500D01*
X103981250Y-151225000D02*
X103981250Y-150727500D01*
X97790000Y-146526250D02*
X99780000Y-146526250D01*
X97850000Y-157356250D02*
X103981250Y-151225000D01*
X97790000Y-165576250D02*
X104520000Y-165576250D01*
X102092500Y-176406250D02*
X108721250Y-169777500D01*
X97850000Y-176406250D02*
X102092500Y-176406250D01*
X104520000Y-165576250D02*
X108721250Y-169777500D01*
X99780000Y-108426250D02*
X103981250Y-112627500D01*
X97850000Y-119256250D02*
X103981250Y-113125000D01*
X97790000Y-108426250D02*
X99780000Y-108426250D01*
X103981250Y-113125000D02*
X103981250Y-112627500D01*
X111538750Y-131700000D02*
X113506250Y-131700000D01*
X113506250Y-132175000D02*
X113506250Y-131700000D01*
X107315000Y-127476250D02*
X111538750Y-131700000D01*
X107375000Y-138306250D02*
X113506250Y-132175000D01*
X118830000Y-146526250D02*
X123031250Y-150727500D01*
X116900000Y-157356250D02*
X123031250Y-151225000D01*
X123031250Y-151225000D02*
X123031250Y-150727500D01*
X116840000Y-146526250D02*
X118830000Y-146526250D01*
X118807500Y-108426250D02*
X123031250Y-112650000D01*
X123031250Y-113125000D02*
X123031250Y-112650000D01*
X116900000Y-119256250D02*
X123031250Y-113125000D01*
X116840000Y-108426250D02*
X118807500Y-108426250D01*
X132556250Y-132175000D02*
X132556250Y-131700000D01*
X126425000Y-138306250D02*
X132556250Y-132175000D01*
X126365000Y-127476250D02*
X130588750Y-131700000D01*
X130588750Y-131700000D02*
X132556250Y-131700000D01*
X135890000Y-146526250D02*
X137880000Y-146526250D01*
X142081250Y-151225000D02*
X142081250Y-150727500D01*
X135950000Y-157356250D02*
X142081250Y-151225000D01*
X137880000Y-146526250D02*
X142081250Y-150727500D01*
X135890000Y-108426250D02*
X140113750Y-112650000D01*
X142121250Y-113085000D02*
X142121250Y-112650000D01*
X140113750Y-112650000D02*
X142121250Y-112650000D01*
X135950000Y-119256250D02*
X142121250Y-113085000D01*
X145475000Y-138306250D02*
X151606250Y-132175000D01*
X145415000Y-127476250D02*
X147382500Y-127476250D01*
X151606250Y-132175000D02*
X151606250Y-131700000D01*
X147382500Y-127476250D02*
X151606250Y-131700000D01*
X155000000Y-157356250D02*
X161131250Y-151225000D01*
X154940000Y-146526250D02*
X156907500Y-146526250D01*
X161131250Y-151225000D02*
X161131250Y-150750000D01*
X156907500Y-146526250D02*
X161131250Y-150750000D01*
X154940000Y-108426250D02*
X156907500Y-108426250D01*
X156907500Y-108426250D02*
X161131250Y-112650000D01*
X161131250Y-113125000D02*
X161131250Y-112650000D01*
X155000000Y-119256250D02*
X161131250Y-113125000D01*
X170656250Y-132175000D02*
X170656250Y-131677500D01*
X164525000Y-138306250D02*
X170656250Y-132175000D01*
X164465000Y-127476250D02*
X168666250Y-131677500D01*
X168666250Y-131677500D02*
X170656250Y-131677500D01*
X175957500Y-146526250D02*
X180181250Y-150750000D01*
X174050000Y-157356250D02*
X180181250Y-151225000D01*
X180181250Y-151225000D02*
X180181250Y-150750000D01*
X173990000Y-146526250D02*
X175957500Y-146526250D01*
X174307500Y-165576250D02*
X178508750Y-169777500D01*
X171608750Y-165576250D02*
X174307500Y-165576250D01*
X178297500Y-169777500D02*
X178508750Y-169777500D01*
X171668750Y-176406250D02*
X178297500Y-169777500D01*
X174050000Y-119256250D02*
X180181250Y-113125000D01*
X180181250Y-113125000D02*
X180181250Y-112650000D01*
X175957500Y-108426250D02*
X180181250Y-112650000D01*
X173990000Y-108426250D02*
X175957500Y-108426250D01*
X189706250Y-132175000D02*
X189706250Y-131700000D01*
X183515000Y-127476250D02*
X187738750Y-131700000D01*
X187738750Y-131700000D02*
X189706250Y-131700000D01*
X183575000Y-138306250D02*
X189706250Y-132175000D01*
X199208750Y-151247500D02*
X199208750Y-150727500D01*
X193100000Y-157356250D02*
X199208750Y-151247500D01*
X193040000Y-146526250D02*
X195007500Y-146526250D01*
X195007500Y-146526250D02*
X199208750Y-150727500D01*
X193040000Y-108426250D02*
X195052500Y-108426250D01*
X199231250Y-113125000D02*
X199231250Y-112605000D01*
X195052500Y-108426250D02*
X199231250Y-112605000D01*
X193100000Y-119256250D02*
X199231250Y-113125000D01*
X204510000Y-127476250D02*
X208733750Y-131700000D01*
X202625000Y-138306250D02*
X208733750Y-132197500D01*
X208733750Y-132197500D02*
X208733750Y-131700000D01*
X202565000Y-127476250D02*
X204510000Y-127476250D01*
X212150000Y-157356250D02*
X218258750Y-151247500D01*
X216291250Y-150727500D02*
X218258750Y-150727500D01*
X212090000Y-146526250D02*
X216291250Y-150727500D01*
X218258750Y-151247500D02*
X218258750Y-150727500D01*
X212090000Y-108426250D02*
X216291250Y-112627500D01*
X216291250Y-112627500D02*
X218258750Y-112627500D01*
X212150000Y-119256250D02*
X218258750Y-113147500D01*
X218258750Y-113147500D02*
X218258750Y-112627500D01*
X223582500Y-127476250D02*
X227783750Y-131677500D01*
X221615000Y-127476250D02*
X223582500Y-127476250D01*
X227783750Y-132197500D02*
X227783750Y-131677500D01*
X221675000Y-138306250D02*
X227783750Y-132197500D01*
X233130000Y-146526250D02*
X237331250Y-150727500D01*
X231200000Y-157356250D02*
X237331250Y-151225000D01*
X231140000Y-146526250D02*
X233130000Y-146526250D01*
X237331250Y-151225000D02*
X237331250Y-150727500D01*
X231140000Y-108426250D02*
X233152500Y-108426250D01*
X231200000Y-119256250D02*
X237353750Y-113102500D01*
X233152500Y-108426250D02*
X237353750Y-112627500D01*
X237353750Y-113102500D02*
X237353750Y-112627500D01*
X240665000Y-127476250D02*
X242632500Y-127476250D01*
X240725000Y-138306250D02*
X246856250Y-132175000D01*
X246856250Y-132175000D02*
X246856250Y-131700000D01*
X242632500Y-127476250D02*
X246856250Y-131700000D01*
X250190000Y-146526250D02*
X254413750Y-150750000D01*
X256381250Y-151225000D02*
X256381250Y-150750000D01*
X254413750Y-150750000D02*
X256381250Y-150750000D01*
X250250000Y-157356250D02*
X256381250Y-151225000D01*
X243106250Y-176406250D02*
X245012500Y-176406250D01*
X245012500Y-176406250D02*
X251618750Y-169800000D01*
X247270000Y-169800000D02*
X251618750Y-169800000D01*
X243046250Y-165576250D02*
X247270000Y-169800000D01*
X252157500Y-108426250D02*
X256381250Y-112650000D01*
X250250000Y-119256250D02*
X256381250Y-113125000D01*
X250190000Y-108426250D02*
X252157500Y-108426250D01*
X256381250Y-113125000D02*
X256381250Y-112650000D01*
X263916250Y-131677500D02*
X265883750Y-131677500D01*
X259715000Y-127476250D02*
X263916250Y-131677500D01*
X265883750Y-132197500D02*
X265883750Y-131677500D01*
X259775000Y-138306250D02*
X265883750Y-132197500D01*
X269240000Y-146526250D02*
X273441250Y-150727500D01*
X275408750Y-151247500D02*
X275408750Y-150727500D01*
X269300000Y-157356250D02*
X275408750Y-151247500D01*
X273441250Y-150727500D02*
X275408750Y-150727500D01*
X264537500Y-176406250D02*
X270668750Y-170275000D01*
X268678750Y-169777500D02*
X270668750Y-169777500D01*
X270668750Y-170275000D02*
X270668750Y-169777500D01*
X264477500Y-165576250D02*
X268678750Y-169777500D01*
X269300000Y-119256250D02*
X275431250Y-113125000D01*
X275431250Y-113125000D02*
X275431250Y-112650000D01*
X269240000Y-108426250D02*
X271207500Y-108426250D01*
X271207500Y-108426250D02*
X275431250Y-112650000D01*
X282966250Y-131677500D02*
X284933750Y-131677500D01*
X284933750Y-132197500D02*
X284933750Y-131677500D01*
X278765000Y-127476250D02*
X282966250Y-131677500D01*
X278825000Y-138306250D02*
X284933750Y-132197500D01*
X287852500Y-176406250D02*
X294481250Y-169777500D01*
X285908750Y-165576250D02*
X290280000Y-165576250D01*
X290280000Y-165576250D02*
X294481250Y-169777500D01*
X285968750Y-176406250D02*
X287852500Y-176406250D01*
X297253750Y-112627500D02*
X297276250Y-112650000D01*
X293112500Y-119256250D02*
X297253750Y-115115000D01*
X297276250Y-112650000D02*
X298450000Y-112650000D01*
X293052500Y-108426250D02*
X297253750Y-112627500D01*
X297253750Y-115115000D02*
X297253750Y-112627500D01*
X301529625Y-134651625D02*
X301752000Y-134429250D01*
X301498000Y-134683250D02*
X301529625Y-134651625D01*
X301498000Y-135510000D02*
X301498000Y-134683250D01*
X301752000Y-134429250D02*
X301752000Y-131318000D01*
X301752000Y-131318000D02*
X297910250Y-127476250D01*
X297875000Y-138306250D02*
X301529625Y-134651625D01*
X297910250Y-127476250D02*
X297815000Y-127476250D01*
X221350000Y-181102000D02*
X221996000Y-180456000D01*
X202426000Y-163440484D02*
X202426000Y-164846000D01*
X221996000Y-180456000D02*
X221996000Y-170180000D01*
X334168750Y-162718750D02*
X367506250Y-162718750D01*
X203200000Y-162666484D02*
X203200000Y-164846000D01*
X213637000Y-161821000D02*
X204045484Y-161821000D01*
X221996000Y-170180000D02*
X213637000Y-161821000D01*
X204045484Y-161821000D02*
X203200000Y-162666484D01*
X374637500Y-178606250D02*
X380206250Y-173037500D01*
X347662500Y-168116250D02*
X343647500Y-164101250D01*
X380206250Y-171167500D02*
X382181250Y-169192500D01*
X343647500Y-164101250D02*
X325483750Y-164101250D01*
X222446000Y-181419255D02*
X222446000Y-169993604D01*
X200660000Y-162666484D02*
X200660000Y-164846000D01*
X342900000Y-176212500D02*
X345293750Y-178606250D01*
X199886000Y-163440484D02*
X199886000Y-164846000D01*
X345293750Y-178606250D02*
X374637500Y-178606250D01*
X380206250Y-173037500D02*
X380206250Y-171167500D01*
X213823396Y-161371000D02*
X201955484Y-161371000D01*
X325483750Y-164101250D02*
X320675000Y-168910000D01*
X222030551Y-181834704D02*
X222446000Y-181419255D01*
X382181250Y-169192500D02*
X382181250Y-168910000D01*
X201955484Y-161371000D02*
X200660000Y-162666484D01*
X222446000Y-169993604D02*
X213823396Y-161371000D01*
X219004092Y-160921000D02*
X199865484Y-160921000D01*
X199865484Y-160921000D02*
X198120000Y-162666484D01*
X197346000Y-163440484D02*
X197346000Y-164846000D01*
X222896000Y-164812908D02*
X219004092Y-160921000D01*
X198120000Y-162666484D02*
X198120000Y-164846000D01*
X222691675Y-182584985D02*
X222896000Y-182380660D01*
X222896000Y-182380660D02*
X222896000Y-164812908D01*
M02*
