M48
; DRILL file {KiCad 8.0.3} date 2024-09-06T14:15:41-0500
; FORMAT={-:-/ absolute / metric / decimal}
; #@! TF.CreationDate,2024-09-06T14:15:41-05:00
; #@! TF.GenerationSoftware,Kicad,Pcbnew,8.0.3
; #@! TF.FileFunction,NonPlated,1,2,NPTH
FMAT,2
METRIC
; #@! TA.AperFunction,NonPlated,NPTH,ComponentDrill
T1C1.702
; #@! TA.AperFunction,NonPlated,NPTH,ComponentDrill
T2C3.048
; #@! TA.AperFunction,NonPlated,NPTH,ComponentDrill
T3C3.988
; #@! TA.AperFunction,NonPlated,NPTH,ComponentDrill
T4C5.100
%
G90
G05
T1
X52.07Y-113.506
X56.832Y-132.556
X61.595Y-151.606
X62.23Y-113.506
X66.358Y-170.656
X66.992Y-132.556
X71.12Y-113.506
X71.755Y-151.606
X76.517Y-170.656
X80.645Y-132.556
X81.28Y-113.506
X90.17Y-113.506
X90.17Y-151.606
X90.17Y-170.656
X90.805Y-132.556
X99.695Y-132.556
X100.33Y-113.506
X100.33Y-151.606
X100.33Y-170.656
X109.22Y-113.506
X109.22Y-151.606
X109.855Y-132.556
X118.745Y-132.556
X119.38Y-113.506
X119.38Y-151.606
X128.27Y-113.506
X128.27Y-151.606
X128.905Y-132.556
X137.795Y-132.556
X138.43Y-113.506
X138.43Y-151.606
X147.32Y-113.506
X147.32Y-151.606
X147.955Y-132.556
X156.845Y-132.556
X157.48Y-113.506
X157.48Y-151.606
X163.989Y-170.656
X166.37Y-113.506
X166.37Y-151.606
X167.005Y-132.556
X174.149Y-170.656
X175.895Y-132.556
X176.53Y-113.506
X176.53Y-151.606
X185.42Y-113.506
X185.42Y-151.606
X186.055Y-132.556
X194.945Y-132.556
X195.58Y-113.506
X195.58Y-151.606
X204.47Y-113.506
X204.47Y-151.606
X205.105Y-132.556
X213.995Y-132.556
X214.63Y-113.506
X214.63Y-151.606
X223.52Y-113.506
X223.52Y-151.606
X224.155Y-132.556
X233.045Y-132.556
X233.68Y-113.506
X233.68Y-151.606
X235.426Y-170.656
X242.57Y-113.506
X242.57Y-151.606
X243.205Y-132.556
X245.586Y-170.656
X252.095Y-132.556
X252.73Y-113.506
X252.73Y-151.606
X256.858Y-170.656
X261.62Y-113.506
X261.62Y-151.606
X262.255Y-132.556
X267.017Y-170.656
X271.145Y-132.556
X271.78Y-113.506
X271.78Y-151.606
X278.289Y-170.656
X281.305Y-132.556
X285.433Y-113.506
X285.433Y-151.606
X288.449Y-170.656
X290.195Y-132.556
X295.592Y-113.506
X295.592Y-151.606
X300.355Y-132.556
X327.342Y-113.506
X327.342Y-132.556
X327.342Y-151.606
X327.342Y-170.656
X337.502Y-113.506
X337.502Y-132.556
X337.502Y-151.606
X337.502Y-170.656
X346.392Y-113.506
X346.392Y-132.556
X346.392Y-151.606
X346.392Y-170.656
X356.553Y-113.506
X356.553Y-132.556
X356.553Y-151.606
X356.553Y-170.656
X365.442Y-113.506
X365.442Y-132.556
X365.442Y-151.606
X365.442Y-170.656
X375.602Y-113.506
X375.602Y-132.556
X375.602Y-151.606
X375.602Y-170.656
T2
X54.737Y-144.621
X78.613Y-144.621
X119.069Y-163.671
X219.069Y-163.671
T3
X54.737Y-159.861
X57.15Y-113.506
X61.912Y-132.556
X66.675Y-151.606
X71.438Y-170.656
X76.2Y-113.506
X78.613Y-159.861
X85.725Y-132.556
X95.25Y-113.506
X95.25Y-151.606
X95.25Y-170.656
X104.775Y-132.556
X114.3Y-113.506
X114.3Y-151.606
X119.069Y-178.911
X123.825Y-132.556
X133.35Y-113.506
X133.35Y-151.606
X142.875Y-132.556
X152.4Y-113.506
X152.4Y-151.606
X161.925Y-132.556
X169.069Y-170.656
X171.45Y-113.506
X171.45Y-151.606
X180.975Y-132.556
X190.5Y-113.506
X190.5Y-151.606
X200.025Y-132.556
X209.55Y-113.506
X209.55Y-151.606
X219.069Y-178.911
X219.075Y-132.556
X228.6Y-113.506
X228.6Y-151.606
X238.125Y-132.556
X240.506Y-170.656
X247.65Y-113.506
X247.65Y-151.606
X257.175Y-132.556
X261.938Y-170.656
X266.7Y-113.506
X266.7Y-151.606
X276.225Y-132.556
X283.369Y-170.656
X290.512Y-113.506
X290.512Y-151.606
X295.275Y-132.556
X332.422Y-113.506
X332.422Y-132.556
X332.422Y-151.606
X332.422Y-170.656
X351.472Y-113.506
X351.472Y-132.556
X351.472Y-151.606
X351.472Y-170.656
X370.522Y-113.506
X370.522Y-132.556
X370.522Y-151.606
X370.522Y-170.656
T4
X57.15Y-113.506
X61.912Y-132.556
X66.675Y-151.606
X71.438Y-170.656
X76.2Y-113.506
X85.725Y-132.556
X95.25Y-113.506
X95.25Y-151.606
X95.25Y-170.656
X104.775Y-132.556
X114.3Y-113.506
X114.3Y-151.606
X123.825Y-132.556
X133.35Y-113.506
X133.35Y-151.606
X142.875Y-132.556
X152.4Y-113.506
X152.4Y-151.606
X161.925Y-132.556
X169.069Y-170.656
X171.45Y-113.506
X171.45Y-151.606
X180.975Y-132.556
X190.5Y-113.506
X190.5Y-151.606
X200.025Y-132.556
X209.55Y-113.506
X209.55Y-151.606
X219.075Y-132.556
X228.6Y-113.506
X228.6Y-151.606
X238.125Y-132.556
X240.506Y-170.656
X247.65Y-113.506
X247.65Y-151.606
X257.175Y-132.556
X261.938Y-170.656
X266.7Y-113.506
X266.7Y-151.606
X276.225Y-132.556
X283.369Y-170.656
X290.512Y-113.506
X290.512Y-151.606
X295.275Y-132.556
X332.422Y-113.506
X332.422Y-132.556
X332.422Y-151.606
X332.422Y-170.656
X351.472Y-113.506
X351.472Y-132.556
X351.472Y-151.606
X351.472Y-170.656
X370.522Y-113.506
X370.522Y-132.556
X370.522Y-151.606
X370.522Y-170.656
M30
