G04 #@! TF.GenerationSoftware,KiCad,Pcbnew,8.0.3*
G04 #@! TF.CreationDate,2024-09-06T14:15:15-05:00*
G04 #@! TF.ProjectId,keyboard,6b657962-6f61-4726-942e-6b696361645f,rev?*
G04 #@! TF.SameCoordinates,Original*
G04 #@! TF.FileFunction,Legend,Top*
G04 #@! TF.FilePolarity,Positive*
%FSLAX46Y46*%
G04 Gerber Fmt 4.6, Leading zero omitted, Abs format (unit mm)*
G04 Created by KiCad (PCBNEW 8.0.3) date 2024-09-06 14:15:15*
%MOMM*%
%LPD*%
G01*
G04 APERTURE LIST*
%ADD10C,0.120000*%
%ADD11C,5.100000*%
%ADD12C,1.701800*%
%ADD13C,3.987800*%
%ADD14O,2.700000X1.700000*%
%ADD15C,3.048000*%
%ADD16C,1.524000*%
G04 APERTURE END LIST*
D10*
X35143750Y-112650000D02*
X41143750Y-112650000D01*
X35143750Y-113410000D02*
X35143750Y-112650000D01*
X35143750Y-115190000D02*
X41143750Y-115190000D01*
X35143750Y-115950000D02*
X35143750Y-115190000D01*
X35143750Y-117730000D02*
X41143750Y-117730000D01*
X35143750Y-118490000D02*
X35143750Y-117730000D01*
X35143750Y-120270000D02*
X41143750Y-120270000D01*
X35143750Y-121030000D02*
X35143750Y-120270000D01*
X35143750Y-122810000D02*
X41143750Y-122810000D01*
X35143750Y-123570000D02*
X35143750Y-122810000D01*
X41143750Y-111700000D02*
X41143750Y-124520000D01*
X41143750Y-113410000D02*
X35143750Y-113410000D01*
X41143750Y-115950000D02*
X35143750Y-115950000D01*
X41143750Y-118490000D02*
X35143750Y-118490000D01*
X41143750Y-121030000D02*
X35143750Y-121030000D01*
X41143750Y-122910000D02*
X35143750Y-122910000D01*
X41143750Y-123030000D02*
X35143750Y-123030000D01*
X41143750Y-123150000D02*
X35143750Y-123150000D01*
X41143750Y-123270000D02*
X35143750Y-123270000D01*
X41143750Y-123390000D02*
X35143750Y-123390000D01*
X41143750Y-123510000D02*
X35143750Y-123510000D01*
X41143750Y-123570000D02*
X35143750Y-123570000D01*
X41143750Y-124520000D02*
X43803750Y-124520000D01*
X43803750Y-111700000D02*
X41143750Y-111700000D01*
X43803750Y-114300000D02*
X41143750Y-114300000D01*
X43803750Y-116840000D02*
X41143750Y-116840000D01*
X43803750Y-119380000D02*
X41143750Y-119380000D01*
X43803750Y-121920000D02*
X41143750Y-121920000D01*
X43803750Y-124520000D02*
X43803750Y-111700000D01*
X44133750Y-122810000D02*
X43803750Y-122810000D01*
X44133750Y-123570000D02*
X43803750Y-123570000D01*
X44200821Y-112650000D02*
X43803750Y-112650000D01*
X44200821Y-113410000D02*
X43803750Y-113410000D01*
X44200821Y-115190000D02*
X43803750Y-115190000D01*
X44200821Y-115950000D02*
X43803750Y-115950000D01*
X44200821Y-117730000D02*
X43803750Y-117730000D01*
X44200821Y-118490000D02*
X43803750Y-118490000D01*
X44200821Y-120270000D02*
X43803750Y-120270000D01*
X44200821Y-121030000D02*
X43803750Y-121030000D01*
X46513750Y-123190000D02*
X46513750Y-124460000D01*
X46513750Y-124460000D02*
X45243750Y-124460000D01*
X380911250Y-111760000D02*
X382181250Y-111760000D01*
X380911250Y-113030000D02*
X380911250Y-111760000D01*
X383224179Y-115190000D02*
X383621250Y-115190000D01*
X383224179Y-115950000D02*
X383621250Y-115950000D01*
X383224179Y-117730000D02*
X383621250Y-117730000D01*
X383224179Y-118490000D02*
X383621250Y-118490000D01*
X383224179Y-120270000D02*
X383621250Y-120270000D01*
X383224179Y-121030000D02*
X383621250Y-121030000D01*
X383224179Y-122810000D02*
X383621250Y-122810000D01*
X383224179Y-123570000D02*
X383621250Y-123570000D01*
X383291250Y-112650000D02*
X383621250Y-112650000D01*
X383291250Y-113410000D02*
X383621250Y-113410000D01*
X383621250Y-111700000D02*
X383621250Y-124520000D01*
X383621250Y-114300000D02*
X386281250Y-114300000D01*
X383621250Y-116840000D02*
X386281250Y-116840000D01*
X383621250Y-119380000D02*
X386281250Y-119380000D01*
X383621250Y-121920000D02*
X386281250Y-121920000D01*
X383621250Y-124520000D02*
X386281250Y-124520000D01*
X386281250Y-111700000D02*
X383621250Y-111700000D01*
X386281250Y-112650000D02*
X392281250Y-112650000D01*
X386281250Y-112710000D02*
X392281250Y-112710000D01*
X386281250Y-112830000D02*
X392281250Y-112830000D01*
X386281250Y-112950000D02*
X392281250Y-112950000D01*
X386281250Y-113070000D02*
X392281250Y-113070000D01*
X386281250Y-113190000D02*
X392281250Y-113190000D01*
X386281250Y-113310000D02*
X392281250Y-113310000D01*
X386281250Y-115190000D02*
X392281250Y-115190000D01*
X386281250Y-117730000D02*
X392281250Y-117730000D01*
X386281250Y-120270000D02*
X392281250Y-120270000D01*
X386281250Y-122810000D02*
X392281250Y-122810000D01*
X386281250Y-124520000D02*
X386281250Y-111700000D01*
X392281250Y-112650000D02*
X392281250Y-113410000D01*
X392281250Y-113410000D02*
X386281250Y-113410000D01*
X392281250Y-115190000D02*
X392281250Y-115950000D01*
X392281250Y-115950000D02*
X386281250Y-115950000D01*
X392281250Y-117730000D02*
X392281250Y-118490000D01*
X392281250Y-118490000D02*
X386281250Y-118490000D01*
X392281250Y-120270000D02*
X392281250Y-121030000D01*
X392281250Y-121030000D02*
X386281250Y-121030000D01*
X392281250Y-122810000D02*
X392281250Y-123570000D01*
X392281250Y-123570000D02*
X386281250Y-123570000D01*
X310575000Y-112650000D02*
X316575000Y-112650000D01*
X310575000Y-113410000D02*
X310575000Y-112650000D01*
X310575000Y-115190000D02*
X316575000Y-115190000D01*
X310575000Y-115950000D02*
X310575000Y-115190000D01*
X310575000Y-117730000D02*
X316575000Y-117730000D01*
X310575000Y-118490000D02*
X310575000Y-117730000D01*
X310575000Y-120270000D02*
X316575000Y-120270000D01*
X310575000Y-121030000D02*
X310575000Y-120270000D01*
X310575000Y-122810000D02*
X316575000Y-122810000D01*
X310575000Y-123570000D02*
X310575000Y-122810000D01*
X316575000Y-111700000D02*
X316575000Y-124520000D01*
X316575000Y-113410000D02*
X310575000Y-113410000D01*
X316575000Y-115950000D02*
X310575000Y-115950000D01*
X316575000Y-118490000D02*
X310575000Y-118490000D01*
X316575000Y-121030000D02*
X310575000Y-121030000D01*
X316575000Y-122910000D02*
X310575000Y-122910000D01*
X316575000Y-123030000D02*
X310575000Y-123030000D01*
X316575000Y-123150000D02*
X310575000Y-123150000D01*
X316575000Y-123270000D02*
X310575000Y-123270000D01*
X316575000Y-123390000D02*
X310575000Y-123390000D01*
X316575000Y-123510000D02*
X310575000Y-123510000D01*
X316575000Y-123570000D02*
X310575000Y-123570000D01*
X316575000Y-124520000D02*
X319235000Y-124520000D01*
X319235000Y-111700000D02*
X316575000Y-111700000D01*
X319235000Y-114300000D02*
X316575000Y-114300000D01*
X319235000Y-116840000D02*
X316575000Y-116840000D01*
X319235000Y-119380000D02*
X316575000Y-119380000D01*
X319235000Y-121920000D02*
X316575000Y-121920000D01*
X319235000Y-124520000D02*
X319235000Y-111700000D01*
X319565000Y-122810000D02*
X319235000Y-122810000D01*
X319565000Y-123570000D02*
X319235000Y-123570000D01*
X319632071Y-112650000D02*
X319235000Y-112650000D01*
X319632071Y-113410000D02*
X319235000Y-113410000D01*
X319632071Y-115190000D02*
X319235000Y-115190000D01*
X319632071Y-115950000D02*
X319235000Y-115950000D01*
X319632071Y-117730000D02*
X319235000Y-117730000D01*
X319632071Y-118490000D02*
X319235000Y-118490000D01*
X319632071Y-120270000D02*
X319235000Y-120270000D01*
X319632071Y-121030000D02*
X319235000Y-121030000D01*
X321945000Y-123190000D02*
X321945000Y-124460000D01*
X321945000Y-124460000D02*
X320675000Y-124460000D01*
X305505000Y-165100000D02*
X306775000Y-165100000D01*
X305505000Y-166370000D02*
X305505000Y-165100000D01*
X307817929Y-168530000D02*
X308215000Y-168530000D01*
X307817929Y-169290000D02*
X308215000Y-169290000D01*
X307817929Y-171070000D02*
X308215000Y-171070000D01*
X307817929Y-171830000D02*
X308215000Y-171830000D01*
X307885000Y-165990000D02*
X308215000Y-165990000D01*
X307885000Y-166750000D02*
X308215000Y-166750000D01*
X308215000Y-165040000D02*
X308215000Y-172780000D01*
X308215000Y-167640000D02*
X310875000Y-167640000D01*
X308215000Y-170180000D02*
X310875000Y-170180000D01*
X308215000Y-172780000D02*
X310875000Y-172780000D01*
X310875000Y-165040000D02*
X308215000Y-165040000D01*
X310875000Y-165990000D02*
X316875000Y-165990000D01*
X310875000Y-166050000D02*
X316875000Y-166050000D01*
X310875000Y-166170000D02*
X316875000Y-166170000D01*
X310875000Y-166290000D02*
X316875000Y-166290000D01*
X310875000Y-166410000D02*
X316875000Y-166410000D01*
X310875000Y-166530000D02*
X316875000Y-166530000D01*
X310875000Y-166650000D02*
X316875000Y-166650000D01*
X310875000Y-168530000D02*
X316875000Y-168530000D01*
X310875000Y-171070000D02*
X316875000Y-171070000D01*
X310875000Y-172780000D02*
X310875000Y-165040000D01*
X316875000Y-165990000D02*
X316875000Y-166750000D01*
X316875000Y-166750000D02*
X310875000Y-166750000D01*
X316875000Y-168530000D02*
X316875000Y-169290000D01*
X316875000Y-169290000D02*
X310875000Y-169290000D01*
X316875000Y-171070000D02*
X316875000Y-171830000D01*
X316875000Y-171830000D02*
X310875000Y-171830000D01*
X305505000Y-111760000D02*
X306775000Y-111760000D01*
X305505000Y-113030000D02*
X305505000Y-111760000D01*
X307817929Y-115190000D02*
X308215000Y-115190000D01*
X307817929Y-115950000D02*
X308215000Y-115950000D01*
X307817929Y-117730000D02*
X308215000Y-117730000D01*
X307817929Y-118490000D02*
X308215000Y-118490000D01*
X307817929Y-120270000D02*
X308215000Y-120270000D01*
X307817929Y-121030000D02*
X308215000Y-121030000D01*
X307817929Y-122810000D02*
X308215000Y-122810000D01*
X307817929Y-123570000D02*
X308215000Y-123570000D01*
X307885000Y-112650000D02*
X308215000Y-112650000D01*
X307885000Y-113410000D02*
X308215000Y-113410000D01*
X308215000Y-111700000D02*
X308215000Y-124520000D01*
X308215000Y-114300000D02*
X310875000Y-114300000D01*
X308215000Y-116840000D02*
X310875000Y-116840000D01*
X308215000Y-119380000D02*
X310875000Y-119380000D01*
X308215000Y-121920000D02*
X310875000Y-121920000D01*
X308215000Y-124520000D02*
X310875000Y-124520000D01*
X310875000Y-111700000D02*
X308215000Y-111700000D01*
X310875000Y-112650000D02*
X316875000Y-112650000D01*
X310875000Y-112710000D02*
X316875000Y-112710000D01*
X310875000Y-112830000D02*
X316875000Y-112830000D01*
X310875000Y-112950000D02*
X316875000Y-112950000D01*
X310875000Y-113070000D02*
X316875000Y-113070000D01*
X310875000Y-113190000D02*
X316875000Y-113190000D01*
X310875000Y-113310000D02*
X316875000Y-113310000D01*
X310875000Y-115190000D02*
X316875000Y-115190000D01*
X310875000Y-117730000D02*
X316875000Y-117730000D01*
X310875000Y-120270000D02*
X316875000Y-120270000D01*
X310875000Y-122810000D02*
X316875000Y-122810000D01*
X310875000Y-124520000D02*
X310875000Y-111700000D01*
X316875000Y-112650000D02*
X316875000Y-113410000D01*
X316875000Y-113410000D02*
X310875000Y-113410000D01*
X316875000Y-115190000D02*
X316875000Y-115950000D01*
X316875000Y-115950000D02*
X310875000Y-115950000D01*
X316875000Y-117730000D02*
X316875000Y-118490000D01*
X316875000Y-118490000D02*
X310875000Y-118490000D01*
X316875000Y-120270000D02*
X316875000Y-121030000D01*
X316875000Y-121030000D02*
X310875000Y-121030000D01*
X316875000Y-122810000D02*
X316875000Y-123570000D01*
X316875000Y-123570000D02*
X310875000Y-123570000D01*
X380911250Y-165100000D02*
X382181250Y-165100000D01*
X380911250Y-166370000D02*
X380911250Y-165100000D01*
X383224179Y-168530000D02*
X383621250Y-168530000D01*
X383224179Y-169290000D02*
X383621250Y-169290000D01*
X383224179Y-171070000D02*
X383621250Y-171070000D01*
X383224179Y-171830000D02*
X383621250Y-171830000D01*
X383291250Y-165990000D02*
X383621250Y-165990000D01*
X383291250Y-166750000D02*
X383621250Y-166750000D01*
X383621250Y-165040000D02*
X383621250Y-172780000D01*
X383621250Y-167640000D02*
X386281250Y-167640000D01*
X383621250Y-170180000D02*
X386281250Y-170180000D01*
X383621250Y-172780000D02*
X386281250Y-172780000D01*
X386281250Y-165040000D02*
X383621250Y-165040000D01*
X386281250Y-165990000D02*
X392281250Y-165990000D01*
X386281250Y-166050000D02*
X392281250Y-166050000D01*
X386281250Y-166170000D02*
X392281250Y-166170000D01*
X386281250Y-166290000D02*
X392281250Y-166290000D01*
X386281250Y-166410000D02*
X392281250Y-166410000D01*
X386281250Y-166530000D02*
X392281250Y-166530000D01*
X386281250Y-166650000D02*
X392281250Y-166650000D01*
X386281250Y-168530000D02*
X392281250Y-168530000D01*
X386281250Y-171070000D02*
X392281250Y-171070000D01*
X386281250Y-172780000D02*
X386281250Y-165040000D01*
X392281250Y-165990000D02*
X392281250Y-166750000D01*
X392281250Y-166750000D02*
X386281250Y-166750000D01*
X392281250Y-168530000D02*
X392281250Y-169290000D01*
X392281250Y-169290000D02*
X386281250Y-169290000D01*
X392281250Y-171070000D02*
X392281250Y-171830000D01*
X392281250Y-171830000D02*
X386281250Y-171830000D01*
X35143750Y-165990000D02*
X41143750Y-165990000D01*
X35143750Y-166750000D02*
X35143750Y-165990000D01*
X35143750Y-168530000D02*
X41143750Y-168530000D01*
X35143750Y-169290000D02*
X35143750Y-168530000D01*
X35143750Y-171070000D02*
X41143750Y-171070000D01*
X35143750Y-171830000D02*
X35143750Y-171070000D01*
X41143750Y-165040000D02*
X41143750Y-172780000D01*
X41143750Y-166750000D02*
X35143750Y-166750000D01*
X41143750Y-169290000D02*
X35143750Y-169290000D01*
X41143750Y-171170000D02*
X35143750Y-171170000D01*
X41143750Y-171290000D02*
X35143750Y-171290000D01*
X41143750Y-171410000D02*
X35143750Y-171410000D01*
X41143750Y-171530000D02*
X35143750Y-171530000D01*
X41143750Y-171650000D02*
X35143750Y-171650000D01*
X41143750Y-171770000D02*
X35143750Y-171770000D01*
X41143750Y-171830000D02*
X35143750Y-171830000D01*
X41143750Y-172780000D02*
X43803750Y-172780000D01*
X43803750Y-165040000D02*
X41143750Y-165040000D01*
X43803750Y-167640000D02*
X41143750Y-167640000D01*
X43803750Y-170180000D02*
X41143750Y-170180000D01*
X43803750Y-172780000D02*
X43803750Y-165040000D01*
X44133750Y-171070000D02*
X43803750Y-171070000D01*
X44133750Y-171830000D02*
X43803750Y-171830000D01*
X44200821Y-165990000D02*
X43803750Y-165990000D01*
X44200821Y-166750000D02*
X43803750Y-166750000D01*
X44200821Y-168530000D02*
X43803750Y-168530000D01*
X44200821Y-169290000D02*
X43803750Y-169290000D01*
X46513750Y-171450000D02*
X46513750Y-172720000D01*
X46513750Y-172720000D02*
X45243750Y-172720000D01*
X310575000Y-165990000D02*
X316575000Y-165990000D01*
X310575000Y-166750000D02*
X310575000Y-165990000D01*
X310575000Y-168530000D02*
X316575000Y-168530000D01*
X310575000Y-169290000D02*
X310575000Y-168530000D01*
X310575000Y-171070000D02*
X316575000Y-171070000D01*
X310575000Y-171830000D02*
X310575000Y-171070000D01*
X316575000Y-165040000D02*
X316575000Y-172780000D01*
X316575000Y-166750000D02*
X310575000Y-166750000D01*
X316575000Y-169290000D02*
X310575000Y-169290000D01*
X316575000Y-171170000D02*
X310575000Y-171170000D01*
X316575000Y-171290000D02*
X310575000Y-171290000D01*
X316575000Y-171410000D02*
X310575000Y-171410000D01*
X316575000Y-171530000D02*
X310575000Y-171530000D01*
X316575000Y-171650000D02*
X310575000Y-171650000D01*
X316575000Y-171770000D02*
X310575000Y-171770000D01*
X316575000Y-171830000D02*
X310575000Y-171830000D01*
X316575000Y-172780000D02*
X319235000Y-172780000D01*
X319235000Y-165040000D02*
X316575000Y-165040000D01*
X319235000Y-167640000D02*
X316575000Y-167640000D01*
X319235000Y-170180000D02*
X316575000Y-170180000D01*
X319235000Y-172780000D02*
X319235000Y-165040000D01*
X319565000Y-171070000D02*
X319235000Y-171070000D01*
X319565000Y-171830000D02*
X319235000Y-171830000D01*
X319632071Y-165990000D02*
X319235000Y-165990000D01*
X319632071Y-166750000D02*
X319235000Y-166750000D01*
X319632071Y-168530000D02*
X319235000Y-168530000D01*
X319632071Y-169290000D02*
X319235000Y-169290000D01*
X321945000Y-171450000D02*
X321945000Y-172720000D01*
X321945000Y-172720000D02*
X320675000Y-172720000D01*
%LPC*%
D11*
X76200000Y-113506250D03*
D12*
X327342500Y-170656250D03*
D13*
X332422500Y-170656250D03*
D12*
X337502500Y-170656250D03*
D11*
X95250000Y-170656250D03*
D12*
X137795000Y-132556250D03*
D13*
X142875000Y-132556250D03*
D12*
X147955000Y-132556250D03*
X223520000Y-151606250D03*
D13*
X228600000Y-151606250D03*
D12*
X233680000Y-151606250D03*
D11*
X219075000Y-132556250D03*
X57150000Y-113506250D03*
D12*
X90170000Y-170656250D03*
D13*
X95250000Y-170656250D03*
D12*
X100330000Y-170656250D03*
X285432500Y-151606250D03*
D13*
X290512500Y-151606250D03*
D12*
X295592500Y-151606250D03*
D11*
X295275000Y-132556250D03*
X200025000Y-132556250D03*
X123825000Y-132556250D03*
D14*
X45243750Y-123190000D03*
X45243750Y-120650000D03*
X45243750Y-118110000D03*
X45243750Y-115570000D03*
X45243750Y-113030000D03*
D12*
X327342500Y-113506250D03*
D13*
X332422500Y-113506250D03*
D12*
X337502500Y-113506250D03*
D11*
X261937500Y-170656250D03*
D12*
X128270000Y-113506250D03*
D13*
X133350000Y-113506250D03*
D12*
X138430000Y-113506250D03*
D11*
X370522500Y-170656250D03*
D12*
X285432500Y-113506250D03*
D13*
X290512500Y-113506250D03*
D12*
X295592500Y-113506250D03*
X271145000Y-132556250D03*
D13*
X276225000Y-132556250D03*
D12*
X281305000Y-132556250D03*
X147320000Y-113506250D03*
D13*
X152400000Y-113506250D03*
D12*
X157480000Y-113506250D03*
D11*
X332422500Y-113506250D03*
X332422500Y-170656250D03*
X114300000Y-113506250D03*
X190500000Y-151606250D03*
D12*
X71120000Y-113506250D03*
D13*
X76200000Y-113506250D03*
D12*
X81280000Y-113506250D03*
X327342500Y-132556250D03*
D13*
X332422500Y-132556250D03*
D12*
X337502500Y-132556250D03*
D11*
X370522500Y-132556250D03*
D14*
X382181250Y-113030000D03*
X382181250Y-115570000D03*
X382181250Y-118110000D03*
X382181250Y-120650000D03*
X382181250Y-123190000D03*
D11*
X351472500Y-113506250D03*
D12*
X185420000Y-113506250D03*
D13*
X190500000Y-113506250D03*
D12*
X195580000Y-113506250D03*
D11*
X66675000Y-151606250D03*
X351472500Y-132556250D03*
D15*
X54737000Y-144621250D03*
D13*
X54737000Y-159861250D03*
D12*
X61595000Y-151606250D03*
D13*
X66675000Y-151606250D03*
D12*
X71755000Y-151606250D03*
D15*
X78613000Y-144621250D03*
D13*
X78613000Y-159861250D03*
D14*
X320675000Y-123190000D03*
X320675000Y-120650000D03*
X320675000Y-118110000D03*
X320675000Y-115570000D03*
X320675000Y-113030000D03*
D11*
X95250000Y-151606250D03*
X257175000Y-132556250D03*
X142875000Y-132556250D03*
D12*
X90170000Y-113506250D03*
D13*
X95250000Y-113506250D03*
D12*
X100330000Y-113506250D03*
D11*
X152400000Y-151606250D03*
D12*
X365442500Y-151606250D03*
D13*
X370522500Y-151606250D03*
D12*
X375602500Y-151606250D03*
D11*
X133350000Y-113506250D03*
D12*
X99695000Y-132556250D03*
D13*
X104775000Y-132556250D03*
D12*
X109855000Y-132556250D03*
X80645000Y-132556250D03*
D13*
X85725000Y-132556250D03*
D12*
X90805000Y-132556250D03*
D11*
X266700000Y-113506250D03*
X240506250Y-170656250D03*
X190500000Y-113506250D03*
D12*
X175895000Y-132556250D03*
D13*
X180975000Y-132556250D03*
D12*
X186055000Y-132556250D03*
X194945000Y-132556250D03*
D13*
X200025000Y-132556250D03*
D12*
X205105000Y-132556250D03*
D11*
X114300000Y-151606250D03*
D12*
X213995000Y-132556250D03*
D13*
X219075000Y-132556250D03*
D12*
X224155000Y-132556250D03*
X90170000Y-151606250D03*
D13*
X95250000Y-151606250D03*
D12*
X100330000Y-151606250D03*
D11*
X152400000Y-113506250D03*
X247650000Y-151606250D03*
X209550000Y-113506250D03*
X228600000Y-151606250D03*
D14*
X306775000Y-166370000D03*
X306775000Y-168910000D03*
X306775000Y-171450000D03*
D12*
X166370000Y-113506250D03*
D13*
X171450000Y-113506250D03*
D12*
X176530000Y-113506250D03*
D11*
X104775000Y-132556250D03*
X266700000Y-151606250D03*
D12*
X204470000Y-113506250D03*
D13*
X209550000Y-113506250D03*
D12*
X214630000Y-113506250D03*
X109220000Y-113506250D03*
D13*
X114300000Y-113506250D03*
D12*
X119380000Y-113506250D03*
X166370000Y-151606250D03*
D13*
X171450000Y-151606250D03*
D12*
X176530000Y-151606250D03*
D11*
X351472500Y-151606250D03*
D12*
X66357500Y-170656250D03*
D13*
X71437500Y-170656250D03*
D12*
X76517500Y-170656250D03*
D11*
X133350000Y-151606250D03*
D12*
X128270000Y-151606250D03*
D13*
X133350000Y-151606250D03*
D12*
X138430000Y-151606250D03*
X346392500Y-113506250D03*
D13*
X351472500Y-113506250D03*
D12*
X356552500Y-113506250D03*
X346392500Y-170656250D03*
D13*
X351472500Y-170656250D03*
D12*
X356552500Y-170656250D03*
X52070000Y-113506250D03*
D13*
X57150000Y-113506250D03*
D12*
X62230000Y-113506250D03*
D11*
X171450000Y-151606250D03*
D12*
X147320000Y-151606250D03*
D13*
X152400000Y-151606250D03*
D12*
X157480000Y-151606250D03*
X233045000Y-132556250D03*
D13*
X238125000Y-132556250D03*
D12*
X243205000Y-132556250D03*
D11*
X209550000Y-151606250D03*
X370522500Y-113506250D03*
D12*
X261620000Y-113506250D03*
D13*
X266700000Y-113506250D03*
D12*
X271780000Y-113506250D03*
X346392500Y-151606250D03*
D13*
X351472500Y-151606250D03*
D12*
X356552500Y-151606250D03*
X235426250Y-170656250D03*
D13*
X240506250Y-170656250D03*
D12*
X245586250Y-170656250D03*
D14*
X306775000Y-113030000D03*
X306775000Y-115570000D03*
X306775000Y-118110000D03*
X306775000Y-120650000D03*
X306775000Y-123190000D03*
D11*
X247650000Y-113506250D03*
X169068750Y-170656250D03*
X95250000Y-113506250D03*
X351472500Y-170656250D03*
D12*
X327342500Y-151606250D03*
D13*
X332422500Y-151606250D03*
D12*
X337502500Y-151606250D03*
D11*
X332422500Y-132556250D03*
X290512500Y-151606250D03*
D14*
X382181250Y-166370000D03*
X382181250Y-168910000D03*
X382181250Y-171450000D03*
D12*
X261620000Y-151606250D03*
D13*
X266700000Y-151606250D03*
D12*
X271780000Y-151606250D03*
D11*
X283368750Y-170656250D03*
D12*
X290195000Y-132556250D03*
D13*
X295275000Y-132556250D03*
D12*
X300355000Y-132556250D03*
D11*
X370522500Y-151606250D03*
X332422500Y-151606250D03*
X71437500Y-170656250D03*
X61912500Y-132556250D03*
D12*
X278288750Y-170656250D03*
D13*
X283368750Y-170656250D03*
D12*
X288448750Y-170656250D03*
D11*
X180975000Y-132556250D03*
X290512500Y-113506250D03*
D12*
X256857500Y-170656250D03*
D13*
X261937500Y-170656250D03*
D12*
X267017500Y-170656250D03*
X346392500Y-132556250D03*
D13*
X351472500Y-132556250D03*
D12*
X356552500Y-132556250D03*
X56832500Y-132556250D03*
D13*
X61912500Y-132556250D03*
D12*
X66992500Y-132556250D03*
X252095000Y-132556250D03*
D13*
X257175000Y-132556250D03*
D12*
X262255000Y-132556250D03*
X109220000Y-151606250D03*
D13*
X114300000Y-151606250D03*
D12*
X119380000Y-151606250D03*
X156845000Y-132556250D03*
D13*
X161925000Y-132556250D03*
D12*
X167005000Y-132556250D03*
X204470000Y-151606250D03*
D13*
X209550000Y-151606250D03*
D12*
X214630000Y-151606250D03*
D15*
X119068750Y-163671250D03*
D13*
X119068750Y-178911250D03*
D12*
X163988750Y-170656250D03*
D13*
X169068750Y-170656250D03*
D12*
X174148750Y-170656250D03*
D15*
X219068750Y-163671250D03*
D13*
X219068750Y-178911250D03*
D14*
X45243750Y-171450000D03*
X45243750Y-168910000D03*
X45243750Y-166370000D03*
D12*
X365442500Y-113506250D03*
D13*
X370522500Y-113506250D03*
D12*
X375602500Y-113506250D03*
X242570000Y-151606250D03*
D13*
X247650000Y-151606250D03*
D12*
X252730000Y-151606250D03*
D11*
X171450000Y-113506250D03*
D12*
X185420000Y-151606250D03*
D13*
X190500000Y-151606250D03*
D12*
X195580000Y-151606250D03*
X365442500Y-170656250D03*
D13*
X370522500Y-170656250D03*
D12*
X375602500Y-170656250D03*
X242570000Y-113506250D03*
D13*
X247650000Y-113506250D03*
D12*
X252730000Y-113506250D03*
X223520000Y-113506250D03*
D13*
X228600000Y-113506250D03*
D12*
X233680000Y-113506250D03*
D11*
X228600000Y-113506250D03*
X161925000Y-132556250D03*
X238125000Y-132556250D03*
D14*
X320675000Y-171450000D03*
X320675000Y-168910000D03*
X320675000Y-166370000D03*
D12*
X118745000Y-132556250D03*
D13*
X123825000Y-132556250D03*
D12*
X128905000Y-132556250D03*
X365442500Y-132556250D03*
D13*
X370522500Y-132556250D03*
D12*
X375602500Y-132556250D03*
D11*
X85725000Y-132556250D03*
X276225000Y-132556250D03*
D16*
X190500000Y-180086000D03*
X193040000Y-180086000D03*
X195580000Y-180086000D03*
X198120000Y-180086000D03*
X200660000Y-180086000D03*
X203200000Y-180086000D03*
X205740000Y-180086000D03*
X208280000Y-180086000D03*
X210820000Y-180086000D03*
X210820000Y-177546000D03*
X210820000Y-175006000D03*
X210820000Y-172466000D03*
X210820000Y-169926000D03*
X210820000Y-167386000D03*
X210820000Y-164846000D03*
X208280000Y-164846000D03*
X205740000Y-164846000D03*
X203200000Y-164846000D03*
X200660000Y-164846000D03*
X198120000Y-164846000D03*
X195580000Y-164846000D03*
X193040000Y-164846000D03*
X190500000Y-164846000D03*
%LPD*%
M02*
