G04 #@! TF.GenerationSoftware,KiCad,Pcbnew,8.0.3*
G04 #@! TF.CreationDate,2024-09-06T14:15:15-05:00*
G04 #@! TF.ProjectId,keyboard,6b657962-6f61-4726-942e-6b696361645f,rev?*
G04 #@! TF.SameCoordinates,Original*
G04 #@! TF.FileFunction,Profile,NP*
%FSLAX46Y46*%
G04 Gerber Fmt 4.6, Leading zero omitted, Abs format (unit mm)*
G04 Created by KiCad (PCBNEW 8.0.3) date 2024-09-06 14:15:15*
%MOMM*%
%LPD*%
G01*
G04 APERTURE LIST*
G04 #@! TA.AperFunction,Profile*
%ADD10C,0.100000*%
G04 #@! TD*
%ADD11C,0.150000*%
G04 APERTURE END LIST*
D10*
X48418750Y-184150000D02*
X109464690Y-184150000D01*
X130895940Y-100012500D02*
X48418750Y-100012500D01*
X323056250Y-100012500D02*
G75*
G02*
X318293750Y-104774950I-4762450J0D01*
G01*
X48418750Y-184150000D02*
G75*
G02*
X43656250Y-179387500I0J4762500D01*
G01*
X134895940Y-100012500D02*
X216620940Y-100012500D01*
X318293750Y-104775000D02*
X318293750Y-99218750D01*
X308768750Y-177800000D02*
X308768750Y-185737500D01*
X43656250Y-140104030D02*
G75*
G02*
X43688000Y-144104030I15870J-2000000D01*
G01*
X308768750Y-179387500D02*
X308768750Y-144104030D01*
X379412500Y-100012500D02*
X323056250Y-100012500D01*
X113464690Y-184150000D02*
X173758440Y-184150000D01*
X109464690Y-184150000D02*
G75*
G02*
X113464690Y-184150000I2000000J0D01*
G01*
X173758440Y-184150000D02*
G75*
G02*
X177758440Y-184150000I2000000J0D01*
G01*
X384175000Y-179387500D02*
X384175000Y-104775000D01*
X242052190Y-184150000D02*
X304006250Y-184150000D01*
X304006250Y-100012500D02*
G75*
G02*
X308768700Y-104775000I-50J-4762500D01*
G01*
X43656250Y-104775000D02*
G75*
G02*
X48418750Y-100012500I4762500J0D01*
G01*
X323056250Y-184150000D02*
X379412500Y-184150000D01*
X177758440Y-184150000D02*
X238052190Y-184150000D01*
X318293750Y-104775000D02*
X318293750Y-179387500D01*
X134895940Y-100012500D02*
G75*
G02*
X130895940Y-100012500I-2000000J0D01*
G01*
X384175000Y-104775000D02*
G75*
G02*
X379412500Y-100012500I0J4762500D01*
G01*
X308768750Y-104775000D02*
X308768750Y-99218750D01*
X318293750Y-104775000D02*
G75*
G02*
X308768750Y-104775000I-4762500J0D01*
G01*
X379412500Y-184150000D02*
G75*
G02*
X384175000Y-179387500I4762500J0D01*
G01*
X43656250Y-140104030D02*
X43656250Y-104775000D01*
X43656250Y-179387500D02*
X43688000Y-144104030D01*
X308768750Y-144104030D02*
G75*
G02*
X308768750Y-140103970I50J2000030D01*
G01*
X308768750Y-179387500D02*
G75*
G02*
X318293750Y-179387500I4762500J0D01*
G01*
X220620940Y-100012500D02*
X304006250Y-100012500D01*
X238052190Y-184150000D02*
G75*
G02*
X242052190Y-184150000I2000000J0D01*
G01*
X308768750Y-179387500D02*
G75*
G02*
X304006250Y-184150050I-4762550J0D01*
G01*
X308768750Y-140104030D02*
X308768750Y-104775000D01*
X318293750Y-179387500D02*
X318293750Y-185737500D01*
X220620940Y-100012500D02*
G75*
G02*
X216620940Y-100012500I-2000000J0D01*
G01*
X318293750Y-179387500D02*
G75*
G02*
X323056300Y-184150000I-50J-4762600D01*
G01*
D11*
X317957319Y-98231077D02*
X318957319Y-97897744D01*
X318957319Y-97897744D02*
X317957319Y-97564411D01*
X318862080Y-95897744D02*
X318909700Y-95945363D01*
X318909700Y-95945363D02*
X318957319Y-96088220D01*
X318957319Y-96088220D02*
X318957319Y-96183458D01*
X318957319Y-96183458D02*
X318909700Y-96326315D01*
X318909700Y-96326315D02*
X318814461Y-96421553D01*
X318814461Y-96421553D02*
X318719223Y-96469172D01*
X318719223Y-96469172D02*
X318528747Y-96516791D01*
X318528747Y-96516791D02*
X318385890Y-96516791D01*
X318385890Y-96516791D02*
X318195414Y-96469172D01*
X318195414Y-96469172D02*
X318100176Y-96421553D01*
X318100176Y-96421553D02*
X318004938Y-96326315D01*
X318004938Y-96326315D02*
X317957319Y-96183458D01*
X317957319Y-96183458D02*
X317957319Y-96088220D01*
X317957319Y-96088220D02*
X318004938Y-95945363D01*
X318004938Y-95945363D02*
X318052557Y-95897744D01*
X317957319Y-95469172D02*
X318766842Y-95469172D01*
X318766842Y-95469172D02*
X318862080Y-95421553D01*
X318862080Y-95421553D02*
X318909700Y-95373934D01*
X318909700Y-95373934D02*
X318957319Y-95278696D01*
X318957319Y-95278696D02*
X318957319Y-95088220D01*
X318957319Y-95088220D02*
X318909700Y-94992982D01*
X318909700Y-94992982D02*
X318862080Y-94945363D01*
X318862080Y-94945363D02*
X318766842Y-94897744D01*
X318766842Y-94897744D02*
X317957319Y-94897744D01*
X317957319Y-94564410D02*
X317957319Y-93992982D01*
X318957319Y-94278696D02*
X317957319Y-94278696D01*
X318909700Y-93707267D02*
X318957319Y-93564410D01*
X318957319Y-93564410D02*
X318957319Y-93326315D01*
X318957319Y-93326315D02*
X318909700Y-93231077D01*
X318909700Y-93231077D02*
X318862080Y-93183458D01*
X318862080Y-93183458D02*
X318766842Y-93135839D01*
X318766842Y-93135839D02*
X318671604Y-93135839D01*
X318671604Y-93135839D02*
X318576366Y-93183458D01*
X318576366Y-93183458D02*
X318528747Y-93231077D01*
X318528747Y-93231077D02*
X318481128Y-93326315D01*
X318481128Y-93326315D02*
X318433509Y-93516791D01*
X318433509Y-93516791D02*
X318385890Y-93612029D01*
X318385890Y-93612029D02*
X318338271Y-93659648D01*
X318338271Y-93659648D02*
X318243033Y-93707267D01*
X318243033Y-93707267D02*
X318147795Y-93707267D01*
X318147795Y-93707267D02*
X318052557Y-93659648D01*
X318052557Y-93659648D02*
X318004938Y-93612029D01*
X318004938Y-93612029D02*
X317957319Y-93516791D01*
X317957319Y-93516791D02*
X317957319Y-93278696D01*
X317957319Y-93278696D02*
X318004938Y-93135839D01*
X309105180Y-186725172D02*
X308105180Y-187058505D01*
X308105180Y-187058505D02*
X309105180Y-187391838D01*
X308200419Y-189058505D02*
X308152800Y-189010886D01*
X308152800Y-189010886D02*
X308105180Y-188868029D01*
X308105180Y-188868029D02*
X308105180Y-188772791D01*
X308105180Y-188772791D02*
X308152800Y-188629934D01*
X308152800Y-188629934D02*
X308248038Y-188534696D01*
X308248038Y-188534696D02*
X308343276Y-188487077D01*
X308343276Y-188487077D02*
X308533752Y-188439458D01*
X308533752Y-188439458D02*
X308676609Y-188439458D01*
X308676609Y-188439458D02*
X308867085Y-188487077D01*
X308867085Y-188487077D02*
X308962323Y-188534696D01*
X308962323Y-188534696D02*
X309057561Y-188629934D01*
X309057561Y-188629934D02*
X309105180Y-188772791D01*
X309105180Y-188772791D02*
X309105180Y-188868029D01*
X309105180Y-188868029D02*
X309057561Y-189010886D01*
X309057561Y-189010886D02*
X309009942Y-189058505D01*
X309105180Y-189487077D02*
X308295657Y-189487077D01*
X308295657Y-189487077D02*
X308200419Y-189534696D01*
X308200419Y-189534696D02*
X308152800Y-189582315D01*
X308152800Y-189582315D02*
X308105180Y-189677553D01*
X308105180Y-189677553D02*
X308105180Y-189868029D01*
X308105180Y-189868029D02*
X308152800Y-189963267D01*
X308152800Y-189963267D02*
X308200419Y-190010886D01*
X308200419Y-190010886D02*
X308295657Y-190058505D01*
X308295657Y-190058505D02*
X309105180Y-190058505D01*
X309105180Y-190391839D02*
X309105180Y-190963267D01*
X308105180Y-190677553D02*
X309105180Y-190677553D01*
X308152800Y-191248982D02*
X308105180Y-191391839D01*
X308105180Y-191391839D02*
X308105180Y-191629934D01*
X308105180Y-191629934D02*
X308152800Y-191725172D01*
X308152800Y-191725172D02*
X308200419Y-191772791D01*
X308200419Y-191772791D02*
X308295657Y-191820410D01*
X308295657Y-191820410D02*
X308390895Y-191820410D01*
X308390895Y-191820410D02*
X308486133Y-191772791D01*
X308486133Y-191772791D02*
X308533752Y-191725172D01*
X308533752Y-191725172D02*
X308581371Y-191629934D01*
X308581371Y-191629934D02*
X308628990Y-191439458D01*
X308628990Y-191439458D02*
X308676609Y-191344220D01*
X308676609Y-191344220D02*
X308724228Y-191296601D01*
X308724228Y-191296601D02*
X308819466Y-191248982D01*
X308819466Y-191248982D02*
X308914704Y-191248982D01*
X308914704Y-191248982D02*
X309009942Y-191296601D01*
X309009942Y-191296601D02*
X309057561Y-191344220D01*
X309057561Y-191344220D02*
X309105180Y-191439458D01*
X309105180Y-191439458D02*
X309105180Y-191677553D01*
X309105180Y-191677553D02*
X309057561Y-191820410D01*
X308432319Y-98231077D02*
X309432319Y-97897744D01*
X309432319Y-97897744D02*
X308432319Y-97564411D01*
X309337080Y-95897744D02*
X309384700Y-95945363D01*
X309384700Y-95945363D02*
X309432319Y-96088220D01*
X309432319Y-96088220D02*
X309432319Y-96183458D01*
X309432319Y-96183458D02*
X309384700Y-96326315D01*
X309384700Y-96326315D02*
X309289461Y-96421553D01*
X309289461Y-96421553D02*
X309194223Y-96469172D01*
X309194223Y-96469172D02*
X309003747Y-96516791D01*
X309003747Y-96516791D02*
X308860890Y-96516791D01*
X308860890Y-96516791D02*
X308670414Y-96469172D01*
X308670414Y-96469172D02*
X308575176Y-96421553D01*
X308575176Y-96421553D02*
X308479938Y-96326315D01*
X308479938Y-96326315D02*
X308432319Y-96183458D01*
X308432319Y-96183458D02*
X308432319Y-96088220D01*
X308432319Y-96088220D02*
X308479938Y-95945363D01*
X308479938Y-95945363D02*
X308527557Y-95897744D01*
X308432319Y-95469172D02*
X309241842Y-95469172D01*
X309241842Y-95469172D02*
X309337080Y-95421553D01*
X309337080Y-95421553D02*
X309384700Y-95373934D01*
X309384700Y-95373934D02*
X309432319Y-95278696D01*
X309432319Y-95278696D02*
X309432319Y-95088220D01*
X309432319Y-95088220D02*
X309384700Y-94992982D01*
X309384700Y-94992982D02*
X309337080Y-94945363D01*
X309337080Y-94945363D02*
X309241842Y-94897744D01*
X309241842Y-94897744D02*
X308432319Y-94897744D01*
X308432319Y-94564410D02*
X308432319Y-93992982D01*
X309432319Y-94278696D02*
X308432319Y-94278696D01*
X309384700Y-93707267D02*
X309432319Y-93564410D01*
X309432319Y-93564410D02*
X309432319Y-93326315D01*
X309432319Y-93326315D02*
X309384700Y-93231077D01*
X309384700Y-93231077D02*
X309337080Y-93183458D01*
X309337080Y-93183458D02*
X309241842Y-93135839D01*
X309241842Y-93135839D02*
X309146604Y-93135839D01*
X309146604Y-93135839D02*
X309051366Y-93183458D01*
X309051366Y-93183458D02*
X309003747Y-93231077D01*
X309003747Y-93231077D02*
X308956128Y-93326315D01*
X308956128Y-93326315D02*
X308908509Y-93516791D01*
X308908509Y-93516791D02*
X308860890Y-93612029D01*
X308860890Y-93612029D02*
X308813271Y-93659648D01*
X308813271Y-93659648D02*
X308718033Y-93707267D01*
X308718033Y-93707267D02*
X308622795Y-93707267D01*
X308622795Y-93707267D02*
X308527557Y-93659648D01*
X308527557Y-93659648D02*
X308479938Y-93612029D01*
X308479938Y-93612029D02*
X308432319Y-93516791D01*
X308432319Y-93516791D02*
X308432319Y-93278696D01*
X308432319Y-93278696D02*
X308479938Y-93135839D01*
X318630180Y-186725172D02*
X317630180Y-187058505D01*
X317630180Y-187058505D02*
X318630180Y-187391838D01*
X317725419Y-189058505D02*
X317677800Y-189010886D01*
X317677800Y-189010886D02*
X317630180Y-188868029D01*
X317630180Y-188868029D02*
X317630180Y-188772791D01*
X317630180Y-188772791D02*
X317677800Y-188629934D01*
X317677800Y-188629934D02*
X317773038Y-188534696D01*
X317773038Y-188534696D02*
X317868276Y-188487077D01*
X317868276Y-188487077D02*
X318058752Y-188439458D01*
X318058752Y-188439458D02*
X318201609Y-188439458D01*
X318201609Y-188439458D02*
X318392085Y-188487077D01*
X318392085Y-188487077D02*
X318487323Y-188534696D01*
X318487323Y-188534696D02*
X318582561Y-188629934D01*
X318582561Y-188629934D02*
X318630180Y-188772791D01*
X318630180Y-188772791D02*
X318630180Y-188868029D01*
X318630180Y-188868029D02*
X318582561Y-189010886D01*
X318582561Y-189010886D02*
X318534942Y-189058505D01*
X318630180Y-189487077D02*
X317820657Y-189487077D01*
X317820657Y-189487077D02*
X317725419Y-189534696D01*
X317725419Y-189534696D02*
X317677800Y-189582315D01*
X317677800Y-189582315D02*
X317630180Y-189677553D01*
X317630180Y-189677553D02*
X317630180Y-189868029D01*
X317630180Y-189868029D02*
X317677800Y-189963267D01*
X317677800Y-189963267D02*
X317725419Y-190010886D01*
X317725419Y-190010886D02*
X317820657Y-190058505D01*
X317820657Y-190058505D02*
X318630180Y-190058505D01*
X318630180Y-190391839D02*
X318630180Y-190963267D01*
X317630180Y-190677553D02*
X318630180Y-190677553D01*
X317677800Y-191248982D02*
X317630180Y-191391839D01*
X317630180Y-191391839D02*
X317630180Y-191629934D01*
X317630180Y-191629934D02*
X317677800Y-191725172D01*
X317677800Y-191725172D02*
X317725419Y-191772791D01*
X317725419Y-191772791D02*
X317820657Y-191820410D01*
X317820657Y-191820410D02*
X317915895Y-191820410D01*
X317915895Y-191820410D02*
X318011133Y-191772791D01*
X318011133Y-191772791D02*
X318058752Y-191725172D01*
X318058752Y-191725172D02*
X318106371Y-191629934D01*
X318106371Y-191629934D02*
X318153990Y-191439458D01*
X318153990Y-191439458D02*
X318201609Y-191344220D01*
X318201609Y-191344220D02*
X318249228Y-191296601D01*
X318249228Y-191296601D02*
X318344466Y-191248982D01*
X318344466Y-191248982D02*
X318439704Y-191248982D01*
X318439704Y-191248982D02*
X318534942Y-191296601D01*
X318534942Y-191296601D02*
X318582561Y-191344220D01*
X318582561Y-191344220D02*
X318630180Y-191439458D01*
X318630180Y-191439458D02*
X318630180Y-191677553D01*
X318630180Y-191677553D02*
X318582561Y-191820410D01*
M02*
