G04 #@! TF.GenerationSoftware,KiCad,Pcbnew,8.0.3*
G04 #@! TF.CreationDate,2024-09-06T14:15:15-05:00*
G04 #@! TF.ProjectId,keyboard,6b657962-6f61-4726-942e-6b696361645f,rev?*
G04 #@! TF.SameCoordinates,Original*
G04 #@! TF.FileFunction,Soldermask,Bot*
G04 #@! TF.FilePolarity,Negative*
%FSLAX46Y46*%
G04 Gerber Fmt 4.6, Leading zero omitted, Abs format (unit mm)*
G04 Created by KiCad (PCBNEW 8.0.3) date 2024-09-06 14:15:15*
%MOMM*%
%LPD*%
G01*
G04 APERTURE LIST*
G04 Aperture macros list*
%AMRoundRect*
0 Rectangle with rounded corners*
0 $1 Rounding radius*
0 $2 $3 $4 $5 $6 $7 $8 $9 X,Y pos of 4 corners*
0 Add a 4 corners polygon primitive as box body*
4,1,4,$2,$3,$4,$5,$6,$7,$8,$9,$2,$3,0*
0 Add four circle primitives for the rounded corners*
1,1,$1+$1,$2,$3*
1,1,$1+$1,$4,$5*
1,1,$1+$1,$6,$7*
1,1,$1+$1,$8,$9*
0 Add four rect primitives between the rounded corners*
20,1,$1+$1,$2,$3,$4,$5,0*
20,1,$1+$1,$4,$5,$6,$7,0*
20,1,$1+$1,$6,$7,$8,$9,0*
20,1,$1+$1,$8,$9,$2,$3,0*%
G04 Aperture macros list end*
%ADD10C,5.100000*%
%ADD11C,2.300000*%
%ADD12C,1.701800*%
%ADD13C,3.987800*%
%ADD14O,2.700000X1.700000*%
%ADD15C,3.048000*%
%ADD16RoundRect,0.225000X0.375000X-0.225000X0.375000X0.225000X-0.375000X0.225000X-0.375000X-0.225000X0*%
%ADD17C,1.524000*%
%ADD18RoundRect,0.114865X-0.735135X1.635135X-0.735135X-1.635135X0.735135X-1.635135X0.735135X1.635135X0*%
%ADD19RoundRect,0.114865X1.635135X0.735135X-1.635135X0.735135X-1.635135X-0.735135X1.635135X-0.735135X0*%
G04 APERTURE END LIST*
D10*
X76200000Y-113506250D03*
D11*
X71800000Y-118206250D03*
X78800000Y-119256250D03*
D12*
X327342500Y-170656250D03*
D13*
X332422500Y-170656250D03*
D12*
X337502500Y-170656250D03*
D11*
X328612500Y-168116250D03*
X334962500Y-165576250D03*
D10*
X95250000Y-170656250D03*
D11*
X90850000Y-175356250D03*
X97850000Y-176406250D03*
D12*
X137795000Y-132556250D03*
D13*
X142875000Y-132556250D03*
D12*
X147955000Y-132556250D03*
D11*
X139065000Y-130016250D03*
X145415000Y-127476250D03*
D12*
X223520000Y-151606250D03*
D13*
X228600000Y-151606250D03*
D12*
X233680000Y-151606250D03*
D11*
X224790000Y-149066250D03*
X231140000Y-146526250D03*
D10*
X219075000Y-132556250D03*
D11*
X214675000Y-137256250D03*
X221675000Y-138306250D03*
D10*
X57150000Y-113506250D03*
D11*
X52750000Y-118206250D03*
X59750000Y-119256250D03*
D12*
X90170000Y-170656250D03*
D13*
X95250000Y-170656250D03*
D12*
X100330000Y-170656250D03*
D11*
X91440000Y-168116250D03*
X97790000Y-165576250D03*
D12*
X285432500Y-151606250D03*
D13*
X290512500Y-151606250D03*
D12*
X295592500Y-151606250D03*
D11*
X286702500Y-149066250D03*
X293052500Y-146526250D03*
D10*
X295275000Y-132556250D03*
D11*
X290875000Y-137256250D03*
X297875000Y-138306250D03*
D10*
X200025000Y-132556250D03*
D11*
X195625000Y-137256250D03*
X202625000Y-138306250D03*
D10*
X123825000Y-132556250D03*
D11*
X119425000Y-137256250D03*
X126425000Y-138306250D03*
D14*
X45243750Y-123190000D03*
X45243750Y-120650000D03*
X45243750Y-118110000D03*
X45243750Y-115570000D03*
X45243750Y-113030000D03*
D12*
X327342500Y-113506250D03*
D13*
X332422500Y-113506250D03*
D12*
X337502500Y-113506250D03*
D11*
X328612500Y-110966250D03*
X334962500Y-108426250D03*
D10*
X261937500Y-170656250D03*
D11*
X257537500Y-175356250D03*
X264537500Y-176406250D03*
D12*
X128270000Y-113506250D03*
D13*
X133350000Y-113506250D03*
D12*
X138430000Y-113506250D03*
D11*
X129540000Y-110966250D03*
X135890000Y-108426250D03*
D10*
X370522500Y-170656250D03*
D11*
X366122500Y-175356250D03*
X373122500Y-176406250D03*
D12*
X285432500Y-113506250D03*
D13*
X290512500Y-113506250D03*
D12*
X295592500Y-113506250D03*
D11*
X286702500Y-110966250D03*
X293052500Y-108426250D03*
D12*
X271145000Y-132556250D03*
D13*
X276225000Y-132556250D03*
D12*
X281305000Y-132556250D03*
D11*
X272415000Y-130016250D03*
X278765000Y-127476250D03*
D12*
X147320000Y-113506250D03*
D13*
X152400000Y-113506250D03*
D12*
X157480000Y-113506250D03*
D11*
X148590000Y-110966250D03*
X154940000Y-108426250D03*
D10*
X332422500Y-113506250D03*
D11*
X328022500Y-118206250D03*
X335022500Y-119256250D03*
D10*
X332422500Y-170656250D03*
D11*
X328022500Y-175356250D03*
X335022500Y-176406250D03*
D10*
X114300000Y-113506250D03*
D11*
X109900000Y-118206250D03*
X116900000Y-119256250D03*
D10*
X190500000Y-151606250D03*
D11*
X186100000Y-156306250D03*
X193100000Y-157356250D03*
D12*
X71120000Y-113506250D03*
D13*
X76200000Y-113506250D03*
D12*
X81280000Y-113506250D03*
D11*
X72390000Y-110966250D03*
X78740000Y-108426250D03*
D12*
X327342500Y-132556250D03*
D13*
X332422500Y-132556250D03*
D12*
X337502500Y-132556250D03*
D11*
X328612500Y-130016250D03*
X334962500Y-127476250D03*
D10*
X370522500Y-132556250D03*
D11*
X366122500Y-137256250D03*
X373122500Y-138306250D03*
D14*
X382181250Y-113030000D03*
X382181250Y-115570000D03*
X382181250Y-118110000D03*
X382181250Y-120650000D03*
X382181250Y-123190000D03*
D10*
X351472500Y-113506250D03*
D11*
X347072500Y-118206250D03*
X354072500Y-119256250D03*
D12*
X185420000Y-113506250D03*
D13*
X190500000Y-113506250D03*
D12*
X195580000Y-113506250D03*
D11*
X186690000Y-110966250D03*
X193040000Y-108426250D03*
D10*
X66675000Y-151606250D03*
D11*
X62275000Y-156306250D03*
X69275000Y-157356250D03*
D10*
X351472500Y-132556250D03*
D11*
X347072500Y-137256250D03*
X354072500Y-138306250D03*
D15*
X54737000Y-144621250D03*
D13*
X54737000Y-159861250D03*
D12*
X61595000Y-151606250D03*
D13*
X66675000Y-151606250D03*
D12*
X71755000Y-151606250D03*
D15*
X78613000Y-144621250D03*
D13*
X78613000Y-159861250D03*
D11*
X62865000Y-149066250D03*
X69215000Y-146526250D03*
D14*
X320675000Y-123190000D03*
X320675000Y-120650000D03*
X320675000Y-118110000D03*
X320675000Y-115570000D03*
X320675000Y-113030000D03*
D10*
X95250000Y-151606250D03*
D11*
X90850000Y-156306250D03*
X97850000Y-157356250D03*
D10*
X257175000Y-132556250D03*
D11*
X252775000Y-137256250D03*
X259775000Y-138306250D03*
D10*
X142875000Y-132556250D03*
D11*
X138475000Y-137256250D03*
X145475000Y-138306250D03*
D12*
X90170000Y-113506250D03*
D13*
X95250000Y-113506250D03*
D12*
X100330000Y-113506250D03*
D11*
X91440000Y-110966250D03*
X97790000Y-108426250D03*
D10*
X152400000Y-151606250D03*
D11*
X148000000Y-156306250D03*
X155000000Y-157356250D03*
D12*
X365442500Y-151606250D03*
D13*
X370522500Y-151606250D03*
D12*
X375602500Y-151606250D03*
D11*
X366712500Y-149066250D03*
X373062500Y-146526250D03*
D10*
X133350000Y-113506250D03*
D11*
X128950000Y-118206250D03*
X135950000Y-119256250D03*
D12*
X99695000Y-132556250D03*
D13*
X104775000Y-132556250D03*
D12*
X109855000Y-132556250D03*
D11*
X100965000Y-130016250D03*
X107315000Y-127476250D03*
D12*
X80645000Y-132556250D03*
D13*
X85725000Y-132556250D03*
D12*
X90805000Y-132556250D03*
D11*
X81915000Y-130016250D03*
X88265000Y-127476250D03*
D10*
X266700000Y-113506250D03*
D11*
X262300000Y-118206250D03*
X269300000Y-119256250D03*
D10*
X240506250Y-170656250D03*
D11*
X236106250Y-175356250D03*
X243106250Y-176406250D03*
D10*
X190500000Y-113506250D03*
D11*
X186100000Y-118206250D03*
X193100000Y-119256250D03*
D12*
X175895000Y-132556250D03*
D13*
X180975000Y-132556250D03*
D12*
X186055000Y-132556250D03*
D11*
X177165000Y-130016250D03*
X183515000Y-127476250D03*
D12*
X194945000Y-132556250D03*
D13*
X200025000Y-132556250D03*
D12*
X205105000Y-132556250D03*
D11*
X196215000Y-130016250D03*
X202565000Y-127476250D03*
D10*
X114300000Y-151606250D03*
D11*
X109900000Y-156306250D03*
X116900000Y-157356250D03*
D12*
X213995000Y-132556250D03*
D13*
X219075000Y-132556250D03*
D12*
X224155000Y-132556250D03*
D11*
X215265000Y-130016250D03*
X221615000Y-127476250D03*
D12*
X90170000Y-151606250D03*
D13*
X95250000Y-151606250D03*
D12*
X100330000Y-151606250D03*
D11*
X91440000Y-149066250D03*
X97790000Y-146526250D03*
D10*
X152400000Y-113506250D03*
D11*
X148000000Y-118206250D03*
X155000000Y-119256250D03*
D10*
X247650000Y-151606250D03*
D11*
X243250000Y-156306250D03*
X250250000Y-157356250D03*
D10*
X209550000Y-113506250D03*
D11*
X205150000Y-118206250D03*
X212150000Y-119256250D03*
D10*
X228600000Y-151606250D03*
D11*
X224200000Y-156306250D03*
X231200000Y-157356250D03*
D14*
X306775000Y-166370000D03*
X306775000Y-168910000D03*
X306775000Y-171450000D03*
D12*
X166370000Y-113506250D03*
D13*
X171450000Y-113506250D03*
D12*
X176530000Y-113506250D03*
D11*
X167640000Y-110966250D03*
X173990000Y-108426250D03*
D10*
X104775000Y-132556250D03*
D11*
X100375000Y-137256250D03*
X107375000Y-138306250D03*
D10*
X266700000Y-151606250D03*
D11*
X262300000Y-156306250D03*
X269300000Y-157356250D03*
D12*
X204470000Y-113506250D03*
D13*
X209550000Y-113506250D03*
D12*
X214630000Y-113506250D03*
D11*
X205740000Y-110966250D03*
X212090000Y-108426250D03*
D12*
X109220000Y-113506250D03*
D13*
X114300000Y-113506250D03*
D12*
X119380000Y-113506250D03*
D11*
X110490000Y-110966250D03*
X116840000Y-108426250D03*
D12*
X166370000Y-151606250D03*
D13*
X171450000Y-151606250D03*
D12*
X176530000Y-151606250D03*
D11*
X167640000Y-149066250D03*
X173990000Y-146526250D03*
D10*
X351472500Y-151606250D03*
D11*
X347072500Y-156306250D03*
X354072500Y-157356250D03*
D12*
X66357500Y-170656250D03*
D13*
X71437500Y-170656250D03*
D12*
X76517500Y-170656250D03*
D11*
X67627500Y-168116250D03*
X73977500Y-165576250D03*
D10*
X133350000Y-151606250D03*
D11*
X128950000Y-156306250D03*
X135950000Y-157356250D03*
D12*
X128270000Y-151606250D03*
D13*
X133350000Y-151606250D03*
D12*
X138430000Y-151606250D03*
D11*
X129540000Y-149066250D03*
X135890000Y-146526250D03*
D12*
X346392500Y-113506250D03*
D13*
X351472500Y-113506250D03*
D12*
X356552500Y-113506250D03*
D11*
X347662500Y-110966250D03*
X354012500Y-108426250D03*
D12*
X346392500Y-170656250D03*
D13*
X351472500Y-170656250D03*
D12*
X356552500Y-170656250D03*
D11*
X347662500Y-168116250D03*
X354012500Y-165576250D03*
D12*
X52070000Y-113506250D03*
D13*
X57150000Y-113506250D03*
D12*
X62230000Y-113506250D03*
D11*
X53340000Y-110966250D03*
X59690000Y-108426250D03*
D10*
X171450000Y-151606250D03*
D11*
X167050000Y-156306250D03*
X174050000Y-157356250D03*
D12*
X147320000Y-151606250D03*
D13*
X152400000Y-151606250D03*
D12*
X157480000Y-151606250D03*
D11*
X148590000Y-149066250D03*
X154940000Y-146526250D03*
D12*
X233045000Y-132556250D03*
D13*
X238125000Y-132556250D03*
D12*
X243205000Y-132556250D03*
D11*
X234315000Y-130016250D03*
X240665000Y-127476250D03*
D10*
X209550000Y-151606250D03*
D11*
X205150000Y-156306250D03*
X212150000Y-157356250D03*
D10*
X370522500Y-113506250D03*
D11*
X366122500Y-118206250D03*
X373122500Y-119256250D03*
D12*
X261620000Y-113506250D03*
D13*
X266700000Y-113506250D03*
D12*
X271780000Y-113506250D03*
D11*
X262890000Y-110966250D03*
X269240000Y-108426250D03*
D12*
X346392500Y-151606250D03*
D13*
X351472500Y-151606250D03*
D12*
X356552500Y-151606250D03*
D11*
X347662500Y-149066250D03*
X354012500Y-146526250D03*
D12*
X235426250Y-170656250D03*
D13*
X240506250Y-170656250D03*
D12*
X245586250Y-170656250D03*
D11*
X236696250Y-168116250D03*
X243046250Y-165576250D03*
D14*
X306775000Y-113030000D03*
X306775000Y-115570000D03*
X306775000Y-118110000D03*
X306775000Y-120650000D03*
X306775000Y-123190000D03*
D10*
X247650000Y-113506250D03*
D11*
X243250000Y-118206250D03*
X250250000Y-119256250D03*
D10*
X169068750Y-170656250D03*
D11*
X164668750Y-175356250D03*
X171668750Y-176406250D03*
D10*
X95250000Y-113506250D03*
D11*
X90850000Y-118206250D03*
X97850000Y-119256250D03*
D10*
X351472500Y-170656250D03*
D11*
X347072500Y-175356250D03*
X354072500Y-176406250D03*
D12*
X327342500Y-151606250D03*
D13*
X332422500Y-151606250D03*
D12*
X337502500Y-151606250D03*
D11*
X328612500Y-149066250D03*
X334962500Y-146526250D03*
D10*
X332422500Y-132556250D03*
D11*
X328022500Y-137256250D03*
X335022500Y-138306250D03*
D10*
X290512500Y-151606250D03*
D11*
X286112500Y-156306250D03*
X293112500Y-157356250D03*
D14*
X382181250Y-166370000D03*
X382181250Y-168910000D03*
X382181250Y-171450000D03*
D12*
X261620000Y-151606250D03*
D13*
X266700000Y-151606250D03*
D12*
X271780000Y-151606250D03*
D11*
X262890000Y-149066250D03*
X269240000Y-146526250D03*
D10*
X283368750Y-170656250D03*
D11*
X278968750Y-175356250D03*
X285968750Y-176406250D03*
D12*
X290195000Y-132556250D03*
D13*
X295275000Y-132556250D03*
D12*
X300355000Y-132556250D03*
D11*
X291465000Y-130016250D03*
X297815000Y-127476250D03*
D10*
X370522500Y-151606250D03*
D11*
X366122500Y-156306250D03*
X373122500Y-157356250D03*
D10*
X332422500Y-151606250D03*
D11*
X328022500Y-156306250D03*
X335022500Y-157356250D03*
D10*
X71437500Y-170656250D03*
D11*
X67037500Y-175356250D03*
X74037500Y-176406250D03*
D10*
X61912500Y-132556250D03*
D11*
X57512500Y-137256250D03*
X64512500Y-138306250D03*
D12*
X278288750Y-170656250D03*
D13*
X283368750Y-170656250D03*
D12*
X288448750Y-170656250D03*
D11*
X279558750Y-168116250D03*
X285908750Y-165576250D03*
D10*
X180975000Y-132556250D03*
D11*
X176575000Y-137256250D03*
X183575000Y-138306250D03*
D10*
X290512500Y-113506250D03*
D11*
X286112500Y-118206250D03*
X293112500Y-119256250D03*
D12*
X256857500Y-170656250D03*
D13*
X261937500Y-170656250D03*
D12*
X267017500Y-170656250D03*
D11*
X258127500Y-168116250D03*
X264477500Y-165576250D03*
D12*
X346392500Y-132556250D03*
D13*
X351472500Y-132556250D03*
D12*
X356552500Y-132556250D03*
D11*
X347662500Y-130016250D03*
X354012500Y-127476250D03*
D12*
X56832500Y-132556250D03*
D13*
X61912500Y-132556250D03*
D12*
X66992500Y-132556250D03*
D11*
X58102500Y-130016250D03*
X64452500Y-127476250D03*
D12*
X252095000Y-132556250D03*
D13*
X257175000Y-132556250D03*
D12*
X262255000Y-132556250D03*
D11*
X253365000Y-130016250D03*
X259715000Y-127476250D03*
D12*
X109220000Y-151606250D03*
D13*
X114300000Y-151606250D03*
D12*
X119380000Y-151606250D03*
D11*
X110490000Y-149066250D03*
X116840000Y-146526250D03*
D12*
X156845000Y-132556250D03*
D13*
X161925000Y-132556250D03*
D12*
X167005000Y-132556250D03*
D11*
X158115000Y-130016250D03*
X164465000Y-127476250D03*
D12*
X204470000Y-151606250D03*
D13*
X209550000Y-151606250D03*
D12*
X214630000Y-151606250D03*
D11*
X205740000Y-149066250D03*
X212090000Y-146526250D03*
D15*
X119068750Y-163671250D03*
D13*
X119068750Y-178911250D03*
D12*
X163988750Y-170656250D03*
D13*
X169068750Y-170656250D03*
D12*
X174148750Y-170656250D03*
D15*
X219068750Y-163671250D03*
D13*
X219068750Y-178911250D03*
D11*
X165258750Y-168116250D03*
X171608750Y-165576250D03*
D14*
X45243750Y-171450000D03*
X45243750Y-168910000D03*
X45243750Y-166370000D03*
D12*
X365442500Y-113506250D03*
D13*
X370522500Y-113506250D03*
D12*
X375602500Y-113506250D03*
D11*
X366712500Y-110966250D03*
X373062500Y-108426250D03*
D12*
X242570000Y-151606250D03*
D13*
X247650000Y-151606250D03*
D12*
X252730000Y-151606250D03*
D11*
X243840000Y-149066250D03*
X250190000Y-146526250D03*
D10*
X171450000Y-113506250D03*
D11*
X167050000Y-118206250D03*
X174050000Y-119256250D03*
D12*
X185420000Y-151606250D03*
D13*
X190500000Y-151606250D03*
D12*
X195580000Y-151606250D03*
D11*
X186690000Y-149066250D03*
X193040000Y-146526250D03*
D12*
X365442500Y-170656250D03*
D13*
X370522500Y-170656250D03*
D12*
X375602500Y-170656250D03*
D11*
X366712500Y-168116250D03*
X373062500Y-165576250D03*
D12*
X242570000Y-113506250D03*
D13*
X247650000Y-113506250D03*
D12*
X252730000Y-113506250D03*
D11*
X243840000Y-110966250D03*
X250190000Y-108426250D03*
D12*
X223520000Y-113506250D03*
D13*
X228600000Y-113506250D03*
D12*
X233680000Y-113506250D03*
D11*
X224790000Y-110966250D03*
X231140000Y-108426250D03*
D10*
X228600000Y-113506250D03*
D11*
X224200000Y-118206250D03*
X231200000Y-119256250D03*
D10*
X161925000Y-132556250D03*
D11*
X157525000Y-137256250D03*
X164525000Y-138306250D03*
D10*
X238125000Y-132556250D03*
D11*
X233725000Y-137256250D03*
X240725000Y-138306250D03*
D14*
X320675000Y-171450000D03*
X320675000Y-168910000D03*
X320675000Y-166370000D03*
D12*
X118745000Y-132556250D03*
D13*
X123825000Y-132556250D03*
D12*
X128905000Y-132556250D03*
D11*
X120015000Y-130016250D03*
X126365000Y-127476250D03*
D12*
X365442500Y-132556250D03*
D13*
X370522500Y-132556250D03*
D12*
X375602500Y-132556250D03*
D11*
X366712500Y-130016250D03*
X373062500Y-127476250D03*
D10*
X85725000Y-132556250D03*
D11*
X81325000Y-137256250D03*
X88325000Y-138306250D03*
D10*
X276225000Y-132556250D03*
D11*
X271825000Y-137256250D03*
X278825000Y-138306250D03*
D16*
X378618750Y-115156250D03*
X378618750Y-111856250D03*
X151606250Y-135000000D03*
X151606250Y-131700000D03*
X340518750Y-134206250D03*
X340518750Y-130906250D03*
X359568750Y-172306250D03*
X359568750Y-169006250D03*
X378618750Y-134206250D03*
X378618750Y-130906250D03*
X237353750Y-115927500D03*
X237353750Y-112627500D03*
X161131250Y-154050000D03*
X161131250Y-150750000D03*
X237331250Y-154027500D03*
X237331250Y-150727500D03*
X132556250Y-135000000D03*
X132556250Y-131700000D03*
X378618750Y-153256250D03*
X378618750Y-149956250D03*
X94433750Y-134977500D03*
X94433750Y-131677500D03*
X284933750Y-134977500D03*
X284933750Y-131677500D03*
X189706250Y-135000000D03*
X189706250Y-131700000D03*
X65881250Y-116743750D03*
X65881250Y-113443750D03*
X256381250Y-154050000D03*
X256381250Y-150750000D03*
X265883750Y-134977500D03*
X265883750Y-131677500D03*
X123031250Y-115950000D03*
X123031250Y-112650000D03*
X180181250Y-115950000D03*
X180181250Y-112650000D03*
X359568750Y-134206250D03*
X359568750Y-130906250D03*
D17*
X190500000Y-180086000D03*
D18*
X190500000Y-181036000D03*
D17*
X193040000Y-180086000D03*
D18*
X193040000Y-181036000D03*
D17*
X195580000Y-180086000D03*
D18*
X195580000Y-181036000D03*
D17*
X198120000Y-180086000D03*
D18*
X198120000Y-181036000D03*
D17*
X200660000Y-180086000D03*
D18*
X200660000Y-181036000D03*
D17*
X203200000Y-180086000D03*
D18*
X203200000Y-181036000D03*
D17*
X205740000Y-180086000D03*
D18*
X205740000Y-181036000D03*
D17*
X208280000Y-180086000D03*
D18*
X208280000Y-181036000D03*
D17*
X210820000Y-180086000D03*
D18*
X210820000Y-181036000D03*
D19*
X211760000Y-177546000D03*
D17*
X210820000Y-177546000D03*
D19*
X211760000Y-175006000D03*
D17*
X210820000Y-175006000D03*
D19*
X211760000Y-172466000D03*
D17*
X210820000Y-172466000D03*
X210820000Y-169926000D03*
D19*
X211760000Y-169936000D03*
X211760000Y-167386000D03*
D17*
X210820000Y-167386000D03*
D18*
X210820000Y-163896000D03*
D17*
X210820000Y-164846000D03*
D18*
X208280000Y-163896000D03*
D17*
X208280000Y-164846000D03*
D18*
X205740000Y-163896000D03*
D17*
X205740000Y-164846000D03*
D18*
X203200000Y-163896000D03*
D17*
X203200000Y-164846000D03*
D18*
X200660000Y-163896000D03*
D17*
X200660000Y-164846000D03*
D18*
X198120000Y-163896000D03*
D17*
X198120000Y-164846000D03*
D18*
X195580000Y-163896000D03*
D17*
X195580000Y-164846000D03*
D18*
X193040000Y-163896000D03*
D17*
X193040000Y-164846000D03*
D18*
X190500000Y-163896000D03*
D17*
X190500000Y-164846000D03*
D16*
X256381250Y-115950000D03*
X256381250Y-112650000D03*
X340518750Y-115156250D03*
X340518750Y-111856250D03*
X298196000Y-155320000D03*
X298196000Y-152020000D03*
X170656250Y-134977500D03*
X170656250Y-131677500D03*
X84931250Y-154027500D03*
X84931250Y-150727500D03*
X84137500Y-115927500D03*
X84137500Y-112627500D03*
X199231250Y-115905000D03*
X199231250Y-112605000D03*
X113506250Y-135000000D03*
X113506250Y-131700000D03*
X142081250Y-154027500D03*
X142081250Y-150727500D03*
X161131250Y-115950000D03*
X161131250Y-112650000D03*
X123031250Y-154027500D03*
X123031250Y-150727500D03*
X340518750Y-172306250D03*
X340518750Y-169006250D03*
X80168750Y-173100000D03*
X80168750Y-169800000D03*
X199208750Y-154027500D03*
X199208750Y-150727500D03*
X275408750Y-154027500D03*
X275408750Y-150727500D03*
X270668750Y-173077500D03*
X270668750Y-169777500D03*
X103981250Y-154027500D03*
X103981250Y-150727500D03*
X298450000Y-115950000D03*
X298450000Y-112650000D03*
X301498000Y-138810000D03*
X301498000Y-135510000D03*
X275431250Y-115950000D03*
X275431250Y-112650000D03*
X142121250Y-115950000D03*
X142121250Y-112650000D03*
X359568750Y-115156250D03*
X359568750Y-111856250D03*
X227783750Y-134977500D03*
X227783750Y-131677500D03*
X103981250Y-115927500D03*
X103981250Y-112627500D03*
X218258750Y-154027500D03*
X218258750Y-150727500D03*
X208733750Y-135000000D03*
X208733750Y-131700000D03*
X378618750Y-172306250D03*
X378618750Y-169006250D03*
X359568750Y-153256250D03*
X359568750Y-149956250D03*
X218258750Y-115927500D03*
X218258750Y-112627500D03*
X180181250Y-154050000D03*
X180181250Y-150750000D03*
X340518750Y-152462500D03*
X340518750Y-149162500D03*
X75406250Y-135000000D03*
X75406250Y-131700000D03*
X108721250Y-173077500D03*
X108721250Y-169777500D03*
X251618750Y-173100000D03*
X251618750Y-169800000D03*
X246856250Y-135000000D03*
X246856250Y-131700000D03*
X178508750Y-173077500D03*
X178508750Y-169777500D03*
X294481250Y-173077500D03*
X294481250Y-169777500D03*
M02*
